<?xml version="1.0" encoding="utf-8" standalone="no"?>
<!DOCTYPE svg PUBLIC "-//W3C//DTD SVG 1.1//EN"
  "http://www.w3.org/Graphics/SVG/1.1/DTD/svg11.dtd">
<svg xmlns:xlink="http://www.w3.org/1999/xlink" width="864pt" height="720pt" viewBox="0 0 864 720" xmlns="http://www.w3.org/2000/svg" version="1.1">
 <metadata>
  <rdf:RDF xmlns:dc="http://purl.org/dc/elements/1.1/" xmlns:cc="http://creativecommons.org/ns#" xmlns:rdf="http://www.w3.org/1999/02/22-rdf-syntax-ns#">
   <cc:Work>
    <dc:type rdf:resource="http://purl.org/dc/dcmitype/StillImage"/>
    <dc:date>2023-12-01T20:00:06.581016</dc:date>
    <dc:format>image/svg+xml</dc:format>
    <dc:creator>
     <cc:Agent>
      <dc:title>Matplotlib v3.7.2, https://matplotlib.org/</dc:title>
     </cc:Agent>
    </dc:creator>
   </cc:Work>
  </rdf:RDF>
 </metadata>
 <defs>
  <style type="text/css">*{stroke-linejoin: round; stroke-linecap: butt}</style>
 </defs>
 <g id="figure_1">
  <g id="patch_1">
   <path d="M 0 720 
L 864 720 
L 864 0 
L 0 0 
z
" style="fill: #ffffff"/>
  </g>
  <g id="axes_1">
   <g id="patch_2">
    <path d="M 47.72 676.6 
L 845.28 676.6 
L 845.28 14.76 
L 47.72 14.76 
z
" style="fill: #ffffff"/>
   </g>
   <g id="matplotlib.axis_1">
    <g id="xtick_1">
     <g id="line2d_1">
      <path d="M 83.154997 676.6 
L 83.154997 14.76 
" clip-path="url(#p7f39bd9a47)" style="fill: none; stroke: #b0b0b0; stroke-width: 0.8; stroke-linecap: square"/>
     </g>
     <g id="line2d_2">
      <defs>
       <path id="m43e29ec082" d="M 0 0 
L 0 3.5 
" style="stroke: #000000; stroke-width: 0.8"/>
      </defs>
      <g>
       <use xlink:href="#m43e29ec082" x="83.154997" y="676.6" style="stroke: #000000; stroke-width: 0.8"/>
      </g>
     </g>
     <g id="text_1">
      <!-- 0 -->
      <g transform="translate(79.973747 691.198437) scale(0.1 -0.1)">
       <defs>
        <path id="DejaVuSans-30" d="M 2034 4250 
Q 1547 4250 1301 3770 
Q 1056 3291 1056 2328 
Q 1056 1369 1301 889 
Q 1547 409 2034 409 
Q 2525 409 2770 889 
Q 3016 1369 3016 2328 
Q 3016 3291 2770 3770 
Q 2525 4250 2034 4250 
z
M 2034 4750 
Q 2819 4750 3233 4129 
Q 3647 3509 3647 2328 
Q 3647 1150 3233 529 
Q 2819 -91 2034 -91 
Q 1250 -91 836 529 
Q 422 1150 422 2328 
Q 422 3509 836 4129 
Q 1250 4750 2034 4750 
z
" transform="scale(0.015625)"/>
       </defs>
       <use xlink:href="#DejaVuSans-30"/>
      </g>
     </g>
    </g>
    <g id="xtick_2">
     <g id="line2d_3">
      <path d="M 235.961921 676.6 
L 235.961921 14.76 
" clip-path="url(#p7f39bd9a47)" style="fill: none; stroke: #b0b0b0; stroke-width: 0.8; stroke-linecap: square"/>
     </g>
     <g id="line2d_4">
      <g>
       <use xlink:href="#m43e29ec082" x="235.961921" y="676.6" style="stroke: #000000; stroke-width: 0.8"/>
      </g>
     </g>
     <g id="text_2">
      <!-- 2000 -->
      <g transform="translate(223.236921 691.198437) scale(0.1 -0.1)">
       <defs>
        <path id="DejaVuSans-32" d="M 1228 531 
L 3431 531 
L 3431 0 
L 469 0 
L 469 531 
Q 828 903 1448 1529 
Q 2069 2156 2228 2338 
Q 2531 2678 2651 2914 
Q 2772 3150 2772 3378 
Q 2772 3750 2511 3984 
Q 2250 4219 1831 4219 
Q 1534 4219 1204 4116 
Q 875 4013 500 3803 
L 500 4441 
Q 881 4594 1212 4672 
Q 1544 4750 1819 4750 
Q 2544 4750 2975 4387 
Q 3406 4025 3406 3419 
Q 3406 3131 3298 2873 
Q 3191 2616 2906 2266 
Q 2828 2175 2409 1742 
Q 1991 1309 1228 531 
z
" transform="scale(0.015625)"/>
       </defs>
       <use xlink:href="#DejaVuSans-32"/>
       <use xlink:href="#DejaVuSans-30" x="63.623047"/>
       <use xlink:href="#DejaVuSans-30" x="127.246094"/>
       <use xlink:href="#DejaVuSans-30" x="190.869141"/>
      </g>
     </g>
    </g>
    <g id="xtick_3">
     <g id="line2d_5">
      <path d="M 388.768846 676.6 
L 388.768846 14.76 
" clip-path="url(#p7f39bd9a47)" style="fill: none; stroke: #b0b0b0; stroke-width: 0.8; stroke-linecap: square"/>
     </g>
     <g id="line2d_6">
      <g>
       <use xlink:href="#m43e29ec082" x="388.768846" y="676.6" style="stroke: #000000; stroke-width: 0.8"/>
      </g>
     </g>
     <g id="text_3">
      <!-- 4000 -->
      <g transform="translate(376.043846 691.198437) scale(0.1 -0.1)">
       <defs>
        <path id="DejaVuSans-34" d="M 2419 4116 
L 825 1625 
L 2419 1625 
L 2419 4116 
z
M 2253 4666 
L 3047 4666 
L 3047 1625 
L 3713 1625 
L 3713 1100 
L 3047 1100 
L 3047 0 
L 2419 0 
L 2419 1100 
L 313 1100 
L 313 1709 
L 2253 4666 
z
" transform="scale(0.015625)"/>
       </defs>
       <use xlink:href="#DejaVuSans-34"/>
       <use xlink:href="#DejaVuSans-30" x="63.623047"/>
       <use xlink:href="#DejaVuSans-30" x="127.246094"/>
       <use xlink:href="#DejaVuSans-30" x="190.869141"/>
      </g>
     </g>
    </g>
    <g id="xtick_4">
     <g id="line2d_7">
      <path d="M 541.575771 676.6 
L 541.575771 14.76 
" clip-path="url(#p7f39bd9a47)" style="fill: none; stroke: #b0b0b0; stroke-width: 0.8; stroke-linecap: square"/>
     </g>
     <g id="line2d_8">
      <g>
       <use xlink:href="#m43e29ec082" x="541.575771" y="676.6" style="stroke: #000000; stroke-width: 0.8"/>
      </g>
     </g>
     <g id="text_4">
      <!-- 6000 -->
      <g transform="translate(528.850771 691.198437) scale(0.1 -0.1)">
       <defs>
        <path id="DejaVuSans-36" d="M 2113 2584 
Q 1688 2584 1439 2293 
Q 1191 2003 1191 1497 
Q 1191 994 1439 701 
Q 1688 409 2113 409 
Q 2538 409 2786 701 
Q 3034 994 3034 1497 
Q 3034 2003 2786 2293 
Q 2538 2584 2113 2584 
z
M 3366 4563 
L 3366 3988 
Q 3128 4100 2886 4159 
Q 2644 4219 2406 4219 
Q 1781 4219 1451 3797 
Q 1122 3375 1075 2522 
Q 1259 2794 1537 2939 
Q 1816 3084 2150 3084 
Q 2853 3084 3261 2657 
Q 3669 2231 3669 1497 
Q 3669 778 3244 343 
Q 2819 -91 2113 -91 
Q 1303 -91 875 529 
Q 447 1150 447 2328 
Q 447 3434 972 4092 
Q 1497 4750 2381 4750 
Q 2619 4750 2861 4703 
Q 3103 4656 3366 4563 
z
" transform="scale(0.015625)"/>
       </defs>
       <use xlink:href="#DejaVuSans-36"/>
       <use xlink:href="#DejaVuSans-30" x="63.623047"/>
       <use xlink:href="#DejaVuSans-30" x="127.246094"/>
       <use xlink:href="#DejaVuSans-30" x="190.869141"/>
      </g>
     </g>
    </g>
    <g id="xtick_5">
     <g id="line2d_9">
      <path d="M 694.382696 676.6 
L 694.382696 14.76 
" clip-path="url(#p7f39bd9a47)" style="fill: none; stroke: #b0b0b0; stroke-width: 0.8; stroke-linecap: square"/>
     </g>
     <g id="line2d_10">
      <g>
       <use xlink:href="#m43e29ec082" x="694.382696" y="676.6" style="stroke: #000000; stroke-width: 0.8"/>
      </g>
     </g>
     <g id="text_5">
      <!-- 8000 -->
      <g transform="translate(681.657696 691.198437) scale(0.1 -0.1)">
       <defs>
        <path id="DejaVuSans-38" d="M 2034 2216 
Q 1584 2216 1326 1975 
Q 1069 1734 1069 1313 
Q 1069 891 1326 650 
Q 1584 409 2034 409 
Q 2484 409 2743 651 
Q 3003 894 3003 1313 
Q 3003 1734 2745 1975 
Q 2488 2216 2034 2216 
z
M 1403 2484 
Q 997 2584 770 2862 
Q 544 3141 544 3541 
Q 544 4100 942 4425 
Q 1341 4750 2034 4750 
Q 2731 4750 3128 4425 
Q 3525 4100 3525 3541 
Q 3525 3141 3298 2862 
Q 3072 2584 2669 2484 
Q 3125 2378 3379 2068 
Q 3634 1759 3634 1313 
Q 3634 634 3220 271 
Q 2806 -91 2034 -91 
Q 1263 -91 848 271 
Q 434 634 434 1313 
Q 434 1759 690 2068 
Q 947 2378 1403 2484 
z
M 1172 3481 
Q 1172 3119 1398 2916 
Q 1625 2713 2034 2713 
Q 2441 2713 2670 2916 
Q 2900 3119 2900 3481 
Q 2900 3844 2670 4047 
Q 2441 4250 2034 4250 
Q 1625 4250 1398 4047 
Q 1172 3844 1172 3481 
z
" transform="scale(0.015625)"/>
       </defs>
       <use xlink:href="#DejaVuSans-38"/>
       <use xlink:href="#DejaVuSans-30" x="63.623047"/>
       <use xlink:href="#DejaVuSans-30" x="127.246094"/>
       <use xlink:href="#DejaVuSans-30" x="190.869141"/>
      </g>
     </g>
    </g>
    <g id="text_6">
     <!-- time -->
     <g transform="translate(435.203906 704.876562) scale(0.1 -0.1)">
      <defs>
       <path id="DejaVuSans-74" d="M 1172 4494 
L 1172 3500 
L 2356 3500 
L 2356 3053 
L 1172 3053 
L 1172 1153 
Q 1172 725 1289 603 
Q 1406 481 1766 481 
L 2356 481 
L 2356 0 
L 1766 0 
Q 1100 0 847 248 
Q 594 497 594 1153 
L 594 3053 
L 172 3053 
L 172 3500 
L 594 3500 
L 594 4494 
L 1172 4494 
z
" transform="scale(0.015625)"/>
       <path id="DejaVuSans-69" d="M 603 3500 
L 1178 3500 
L 1178 0 
L 603 0 
L 603 3500 
z
M 603 4863 
L 1178 4863 
L 1178 4134 
L 603 4134 
L 603 4863 
z
" transform="scale(0.015625)"/>
       <path id="DejaVuSans-6d" d="M 3328 2828 
Q 3544 3216 3844 3400 
Q 4144 3584 4550 3584 
Q 5097 3584 5394 3201 
Q 5691 2819 5691 2113 
L 5691 0 
L 5113 0 
L 5113 2094 
Q 5113 2597 4934 2840 
Q 4756 3084 4391 3084 
Q 3944 3084 3684 2787 
Q 3425 2491 3425 1978 
L 3425 0 
L 2847 0 
L 2847 2094 
Q 2847 2600 2669 2842 
Q 2491 3084 2119 3084 
Q 1678 3084 1418 2786 
Q 1159 2488 1159 1978 
L 1159 0 
L 581 0 
L 581 3500 
L 1159 3500 
L 1159 2956 
Q 1356 3278 1631 3431 
Q 1906 3584 2284 3584 
Q 2666 3584 2933 3390 
Q 3200 3197 3328 2828 
z
" transform="scale(0.015625)"/>
       <path id="DejaVuSans-65" d="M 3597 1894 
L 3597 1613 
L 953 1613 
Q 991 1019 1311 708 
Q 1631 397 2203 397 
Q 2534 397 2845 478 
Q 3156 559 3463 722 
L 3463 178 
Q 3153 47 2828 -22 
Q 2503 -91 2169 -91 
Q 1331 -91 842 396 
Q 353 884 353 1716 
Q 353 2575 817 3079 
Q 1281 3584 2069 3584 
Q 2775 3584 3186 3129 
Q 3597 2675 3597 1894 
z
M 3022 2063 
Q 3016 2534 2758 2815 
Q 2500 3097 2075 3097 
Q 1594 3097 1305 2825 
Q 1016 2553 972 2059 
L 3022 2063 
z
" transform="scale(0.015625)"/>
      </defs>
      <use xlink:href="#DejaVuSans-74"/>
      <use xlink:href="#DejaVuSans-69" x="39.208984"/>
      <use xlink:href="#DejaVuSans-6d" x="66.992188"/>
      <use xlink:href="#DejaVuSans-65" x="164.404297"/>
     </g>
    </g>
   </g>
   <g id="matplotlib.axis_2">
    <g id="ytick_1">
     <g id="line2d_11">
      <path d="M 47.72 601.027078 
L 845.28 601.027078 
" clip-path="url(#p7f39bd9a47)" style="fill: none; stroke: #b0b0b0; stroke-width: 0.8; stroke-linecap: square"/>
     </g>
     <g id="line2d_12">
      <defs>
       <path id="m90a9037812" d="M 0 0 
L -3.5 0 
" style="stroke: #000000; stroke-width: 0.8"/>
      </defs>
      <g>
       <use xlink:href="#m90a9037812" x="47.72" y="601.027078" style="stroke: #000000; stroke-width: 0.8"/>
      </g>
     </g>
     <g id="text_7">
      <!-- 0 -->
      <g transform="translate(34.3575 604.826297) scale(0.1 -0.1)">
       <use xlink:href="#DejaVuSans-30"/>
      </g>
     </g>
    </g>
    <g id="ytick_2">
     <g id="line2d_13">
      <path d="M 47.72 456.586402 
L 845.28 456.586402 
" clip-path="url(#p7f39bd9a47)" style="fill: none; stroke: #b0b0b0; stroke-width: 0.8; stroke-linecap: square"/>
     </g>
     <g id="line2d_14">
      <g>
       <use xlink:href="#m90a9037812" x="47.72" y="456.586402" style="stroke: #000000; stroke-width: 0.8"/>
      </g>
     </g>
     <g id="text_8">
      <!-- 5 -->
      <g transform="translate(34.3575 460.385621) scale(0.1 -0.1)">
       <defs>
        <path id="DejaVuSans-35" d="M 691 4666 
L 3169 4666 
L 3169 4134 
L 1269 4134 
L 1269 2991 
Q 1406 3038 1543 3061 
Q 1681 3084 1819 3084 
Q 2600 3084 3056 2656 
Q 3513 2228 3513 1497 
Q 3513 744 3044 326 
Q 2575 -91 1722 -91 
Q 1428 -91 1123 -41 
Q 819 9 494 109 
L 494 744 
Q 775 591 1075 516 
Q 1375 441 1709 441 
Q 2250 441 2565 725 
Q 2881 1009 2881 1497 
Q 2881 1984 2565 2268 
Q 2250 2553 1709 2553 
Q 1456 2553 1204 2497 
Q 953 2441 691 2322 
L 691 4666 
z
" transform="scale(0.015625)"/>
       </defs>
       <use xlink:href="#DejaVuSans-35"/>
      </g>
     </g>
    </g>
    <g id="ytick_3">
     <g id="line2d_15">
      <path d="M 47.72 312.145726 
L 845.28 312.145726 
" clip-path="url(#p7f39bd9a47)" style="fill: none; stroke: #b0b0b0; stroke-width: 0.8; stroke-linecap: square"/>
     </g>
     <g id="line2d_16">
      <g>
       <use xlink:href="#m90a9037812" x="47.72" y="312.145726" style="stroke: #000000; stroke-width: 0.8"/>
      </g>
     </g>
     <g id="text_9">
      <!-- 10 -->
      <g transform="translate(27.995 315.944945) scale(0.1 -0.1)">
       <defs>
        <path id="DejaVuSans-31" d="M 794 531 
L 1825 531 
L 1825 4091 
L 703 3866 
L 703 4441 
L 1819 4666 
L 2450 4666 
L 2450 531 
L 3481 531 
L 3481 0 
L 794 0 
L 794 531 
z
" transform="scale(0.015625)"/>
       </defs>
       <use xlink:href="#DejaVuSans-31"/>
       <use xlink:href="#DejaVuSans-30" x="63.623047"/>
      </g>
     </g>
    </g>
    <g id="ytick_4">
     <g id="line2d_17">
      <path d="M 47.72 167.705051 
L 845.28 167.705051 
" clip-path="url(#p7f39bd9a47)" style="fill: none; stroke: #b0b0b0; stroke-width: 0.8; stroke-linecap: square"/>
     </g>
     <g id="line2d_18">
      <g>
       <use xlink:href="#m90a9037812" x="47.72" y="167.705051" style="stroke: #000000; stroke-width: 0.8"/>
      </g>
     </g>
     <g id="text_10">
      <!-- 15 -->
      <g transform="translate(27.995 171.504269) scale(0.1 -0.1)">
       <use xlink:href="#DejaVuSans-31"/>
       <use xlink:href="#DejaVuSans-35" x="63.623047"/>
      </g>
     </g>
    </g>
    <g id="ytick_5">
     <g id="line2d_19">
      <path d="M 47.72 23.264375 
L 845.28 23.264375 
" clip-path="url(#p7f39bd9a47)" style="fill: none; stroke: #b0b0b0; stroke-width: 0.8; stroke-linecap: square"/>
     </g>
     <g id="line2d_20">
      <g>
       <use xlink:href="#m90a9037812" x="47.72" y="23.264375" style="stroke: #000000; stroke-width: 0.8"/>
      </g>
     </g>
     <g id="text_11">
      <!-- 20 -->
      <g transform="translate(27.995 27.063593) scale(0.1 -0.1)">
       <use xlink:href="#DejaVuSans-32"/>
       <use xlink:href="#DejaVuSans-30" x="63.623047"/>
      </g>
     </g>
    </g>
    <g id="text_12">
     <!-- A, mA -->
     <g transform="translate(21.915313 360.569063) rotate(-90) scale(0.1 -0.1)">
      <defs>
       <path id="DejaVuSans-41" d="M 2188 4044 
L 1331 1722 
L 3047 1722 
L 2188 4044 
z
M 1831 4666 
L 2547 4666 
L 4325 0 
L 3669 0 
L 3244 1197 
L 1141 1197 
L 716 0 
L 50 0 
L 1831 4666 
z
" transform="scale(0.015625)"/>
       <path id="DejaVuSans-2c" d="M 750 794 
L 1409 794 
L 1409 256 
L 897 -744 
L 494 -744 
L 750 256 
L 750 794 
z
" transform="scale(0.015625)"/>
       <path id="DejaVuSans-20" transform="scale(0.015625)"/>
      </defs>
      <use xlink:href="#DejaVuSans-41"/>
      <use xlink:href="#DejaVuSans-2c" x="68.408203"/>
      <use xlink:href="#DejaVuSans-20" x="100.195312"/>
      <use xlink:href="#DejaVuSans-6d" x="131.982422"/>
      <use xlink:href="#DejaVuSans-41" x="229.394531"/>
     </g>
    </g>
   </g>
   <g id="line2d_21">
    <path d="M 83.972727 574.441862 
L 84.517881 571.467511 
L 84.699599 572.275105 
L 84.881317 571.281411 
L 85.063035 572.089005 
L 85.244753 571.094188 
L 85.426471 573.704192 
L 85.608189 574.511785 
L 85.789907 573.516968 
L 87.061932 579.170122 
L 87.24365 578.17418 
L 87.425368 578.981774 
L 87.788804 576.986507 
L 88.515676 580.216881 
L 89.242547 576.212783 
L 89.605983 577.82797 
L 90.332855 573.805709 
L 92.695188 584.304425 
L 92.876906 583.296011 
L 93.42206 585.718791 
L 94.512367 579.644269 
L 94.694085 580.451863 
L 95.239239 577.399083 
L 97.601572 587.897798 
L 98.146726 584.83462 
L 98.328444 585.642213 
L 99.418751 579.484503 
L 99.963905 581.907284 
L 100.145623 580.876917 
L 102.507956 591.375632 
L 102.689674 590.344096 
L 102.871392 591.151689 
L 103.05311 590.118981 
L 103.416546 591.734168 
L 103.598264 588.857637 
L 104.870289 581.579231 
L 105.052007 578.681435 
L 105.233725 577.63455 
L 105.415443 580.296622 
L 106.142315 583.526996 
L 106.324033 586.187878 
L 106.505751 586.995471 
L 106.869187 592.313673 
L 107.050905 593.121266 
L 107.777776 588.940859 
L 107.959494 586.03592 
L 108.32293 587.651107 
L 108.686366 581.826886 
L 108.868084 580.77163 
L 109.594956 584.002004 
L 109.776674 586.672447 
L 109.958391 585.617191 
L 110.140109 582.695478 
L 110.503545 588.039972 
L 110.685263 586.983514 
L 111.957289 592.636668 
L 112.320725 590.52014 
L 112.502442 593.194194 
L 113.047596 584.400082 
L 113.774468 580.128258 
L 113.956186 580.935851 
L 114.137904 579.864847 
L 114.319622 576.911576 
L 114.50134 577.719169 
L 114.864776 583.095221 
L 115.773365 587.133188 
L 116.136801 592.50435 
L 116.500237 594.119537 
L 116.681955 591.171155 
L 117.045391 592.786342 
L 117.227109 589.833072 
L 117.408827 588.758395 
L 117.95398 579.861729 
L 118.135698 580.669322 
L 118.317416 579.586021 
L 118.499134 582.284509 
L 118.86257 576.328682 
L 119.044288 579.03089 
L 119.407724 580.646077 
L 119.589442 583.347043 
L 119.77116 584.154636 
L 119.952878 583.068857 
L 120.316314 584.684044 
L 120.679749 590.084737 
L 120.861467 589.000197 
L 121.043185 589.807791 
L 121.224903 592.507517 
L 121.406621 593.31511 
L 121.588339 596.013598 
L 121.770057 596.821192 
L 122.133493 594.653352 
L 122.496929 588.68759 
L 122.860365 586.504829 
L 123.042082 583.509475 
L 123.2238 582.413716 
L 123.405518 579.410838 
L 123.768954 577.21052 
L 123.950672 578.018114 
L 124.677544 588.874464 
L 125.767851 593.720025 
L 126.131287 591.52474 
L 126.313005 592.332333 
L 127.948467 582.391078 
L 128.130185 579.360353 
L 128.49362 580.97554 
L 128.675338 579.862061 
L 129.220492 582.284841 
L 129.40221 581.170083 
L 129.765646 582.78527 
L 129.947364 585.515215 
L 130.129082 584.400457 
L 130.3108 585.208051 
L 130.674236 590.666662 
L 131.037671 592.281849 
L 131.219389 591.168369 
L 131.401107 591.975963 
L 131.764543 589.745167 
L 131.946261 590.55276 
L 132.309697 588.316837 
L 132.491415 589.124431 
L 132.854851 586.883367 
L 133.400005 589.306147 
L 133.76344 587.059929 
L 133.945158 587.867522 
L 134.126876 586.742476 
L 134.308594 583.680906 
L 134.853748 586.103686 
L 135.035466 584.974753 
L 135.398902 586.58994 
L 135.58062 585.459708 
L 135.944056 587.074895 
L 136.307491 584.810527 
L 136.670927 586.425713 
L 137.216081 583.019374 
L 137.397799 583.826968 
L 137.761235 581.54953 
L 138.124671 583.164717 
L 138.488107 580.882027 
L 140.85044 591.380743 
L 142.667619 579.88801 
L 145.029952 590.386725 
L 145.21167 589.230141 
L 145.938542 592.460515 
L 146.301978 590.143337 
L 146.483696 590.95093 
L 146.665414 589.790332 
L 147.028849 591.405519 
L 147.755721 586.749688 
L 148.119157 588.364875 
L 148.300875 587.197549 
L 148.482593 588.005142 
L 148.664311 586.836465 
L 149.936336 592.489619 
L 150.118054 591.319589 
L 150.48149 592.934776 
L 150.844926 590.59065 
L 151.026644 591.398243 
L 151.753516 586.693674 
L 151.935234 587.501267 
L 152.298669 585.140794 
L 152.662105 586.755981 
L 152.843823 585.573691 
L 154.479285 592.842032 
L 154.661003 591.65837 
L 154.84272 592.465964 
L 155.569592 587.717562 
L 155.75131 588.525156 
L 156.296464 584.94936 
L 156.478182 585.756953 
L 156.6599 584.56225 
L 157.386771 587.792624 
L 157.568489 586.596532 
L 158.477079 590.634499 
L 159.022233 587.037871 
L 159.203951 587.845464 
L 160.294258 580.614449 
L 160.839412 583.037229 
L 161.02113 581.827142 
L 161.92972 585.86511 
L 162.111438 584.653613 
L 162.293156 585.461206 
L 162.474874 584.248297 
L 162.656591 585.055891 
L 163.746899 577.748668 
L 163.928617 578.556262 
L 164.110335 577.333412 
L 164.292053 578.141005 
L 164.473771 576.916727 
L 165.018925 579.339507 
L 165.200643 578.113799 
L 165.38236 578.921393 
L 166.836104 569.063998 
L 167.017822 569.871591 
L 167.19954 568.63292 
L 168.108129 572.670888 
L 168.289847 571.430766 
L 168.471565 572.23836 
L 169.743591 563.516724 
L 169.925309 560.204062 
L 170.107027 561.011655 
L 170.288745 559.756915 
L 170.833898 562.179696 
L 171.56077 557.145981 
L 171.742488 557.953575 
L 173.196231 547.814881 
L 173.559667 541.094442 
L 174.468257 534.678938 
L 174.831693 536.294125 
L 175.013411 535.006478 
L 175.376847 540.810628 
L 176.285436 534.364775 
L 176.648872 527.565426 
L 176.83059 528.373019 
L 177.73918 521.858231 
L 178.102616 515.003371 
L 178.466051 516.618558 
L 178.647769 513.181796 
L 178.829487 511.864872 
L 179.192923 504.966327 
L 179.556359 502.31522 
L 179.919795 503.930407 
L 180.828385 497.274994 
L 181.010103 498.082587 
L 181.19182 496.746746 
L 181.373538 497.55434 
L 181.555256 496.216907 
L 181.736974 492.729665 
L 181.918692 491.387444 
L 182.10041 487.890602 
L 182.282128 486.54357 
L 182.463846 483.037086 
L 183.009 478.976647 
L 183.372436 469.754029 
L 183.554154 468.389174 
L 183.735871 464.846962 
L 183.917589 465.654556 
L 184.644461 460.165622 
L 184.826179 456.603672 
L 185.553051 451.075083 
L 185.916487 446.103574 
L 186.279923 443.319273 
L 186.643358 438.322639 
L 188.097102 427.077521 
L 188.642256 429.500302 
L 190.459435 415.290197 
L 190.822871 416.905384 
L 191.913178 408.296326 
L 192.64005 395.750032 
L 195.547537 372.283708 
L 195.729255 373.091302 
L 196.092691 370.125614 
L 196.819563 373.355988 
L 197.728152 365.909887 
L 197.90987 366.717481 
L 198.273306 363.726227 
L 198.81846 354.600667 
L 199.727049 347.043943 
L 200.272203 337.825307 
L 201.180793 330.174755 
L 201.544229 320.053938 
L 202.634536 310.753067 
L 202.997972 305.268975 
L 203.17969 306.076568 
L 203.543126 300.574986 
L 204.08828 295.863422 
L 204.451716 287.938659 
L 204.633434 288.746253 
L 204.815152 287.163928 
L 204.996869 287.971521 
L 205.360305 284.800932 
L 205.905459 275.22447 
L 206.268895 276.839657 
L 206.814049 267.213145 
L 206.995767 268.020739 
L 207.177485 266.412431 
L 207.54092 272.857402 
L 208.631228 277.702963 
L 208.812946 280.922423 
L 208.994664 281.730016 
L 209.176382 280.125743 
L 209.903254 266.416429 
L 210.084972 264.795938 
L 210.630125 255.047588 
L 211.356997 258.277962 
L 211.538715 256.645163 
L 211.720433 259.893149 
L 212.083869 261.508336 
L 212.265587 264.754261 
L 212.447305 265.561854 
L 212.81074 262.298318 
L 213.355894 272.036097 
L 213.537612 270.407415 
L 213.71933 271.215009 
L 213.901048 274.458878 
L 214.082766 275.266471 
L 214.264484 278.508287 
L 214.62792 280.123474 
L 215.173074 275.237425 
L 215.536509 284.161442 
L 215.718227 282.534812 
L 215.899945 283.342406 
L 216.081663 281.713724 
L 216.445099 283.328911 
L 216.808535 289.814596 
L 216.990253 295.48449 
L 217.171971 296.292083 
L 217.353689 299.527761 
L 217.535407 300.335355 
L 217.717125 303.568994 
L 217.898843 304.376587 
L 218.262278 313.25771 
L 218.625714 319.706721 
L 218.98915 321.321908 
L 219.170868 319.713601 
L 219.352586 322.937095 
L 219.534304 321.328788 
L 219.716022 324.552282 
L 219.89774 322.943975 
L 220.079458 326.167469 
L 220.806329 329.397843 
L 220.988047 332.619319 
L 221.351483 334.234506 
L 221.533201 337.453966 
L 221.714919 338.26156 
L 221.896637 336.657286 
L 222.623509 349.52307 
L 222.805227 350.330663 
L 222.986945 353.542096 
L 223.713816 373.543568 
L 224.25897 368.790654 
L 224.440688 369.598247 
L 224.804124 375.99921 
L 224.985842 374.414907 
L 225.16756 375.2225 
L 225.530996 372.047943 
L 225.712714 372.855537 
L 226.076149 381.652365 
L 226.621303 391.238976 
L 227.348175 411.116192 
L 227.529893 414.294094 
L 227.711611 415.101687 
L 227.893329 418.277646 
L 228.256765 419.892833 
L 228.438483 418.332061 
L 228.620201 421.50802 
L 228.801918 422.315614 
L 228.983636 420.754842 
L 229.165354 421.562435 
L 229.347072 424.738394 
L 229.710508 426.353581 
L 230.073944 432.699682 
L 230.255662 438.230454 
L 230.43738 439.038047 
L 230.619098 442.204337 
L 230.982534 450.884081 
L 231.527687 460.354184 
L 232.436277 464.392151 
L 232.617995 467.545037 
L 232.981431 469.160224 
L 233.163149 472.311207 
L 233.344867 470.775411 
L 234.253456 486.511363 
L 234.435174 487.318957 
L 234.79861 493.600107 
L 234.980328 494.4077 
L 235.162046 499.873732 
L 238.978123 516.833195 
L 239.341558 523.09932 
L 239.704994 524.714507 
L 240.06843 530.973157 
L 240.97702 535.011124 
L 241.158738 533.497919 
L 241.885609 536.728293 
L 242.249045 542.983214 
L 242.430763 543.790807 
L 242.612481 546.915476 
L 242.794199 545.405994 
L 242.975917 546.213588 
L 243.339353 552.461068 
L 243.884507 554.883849 
L 244.066225 553.376224 
L 244.247943 556.499036 
L 244.429661 554.991411 
L 244.793096 561.23518 
L 244.974814 562.042774 
L 245.156532 560.537003 
L 245.33825 561.344597 
L 245.701686 558.32749 
L 245.883404 559.135083 
L 246.065122 557.623742 
L 246.24684 558.431335 
L 246.791994 553.88612 
L 246.973712 554.693713 
L 247.155429 553.174901 
L 251.51666 572.557145 
L 251.698378 571.036458 
L 252.061814 565.655524 
L 253.152121 556.457807 
L 253.333839 552.569097 
L 253.515557 553.37669 
L 253.697275 556.53339 
L 254.969301 562.186544 
L 255.151018 565.341336 
L 255.514454 559.9092 
L 256.059608 555.267424 
L 256.968198 538.007468 
L 257.149916 541.189267 
L 257.331634 541.99686 
L 257.513352 540.430249 
L 258.058505 542.853029 
L 258.421941 539.713945 
L 258.603659 542.899652 
L 258.785377 543.707245 
L 259.148813 538.18221 
L 259.330531 538.989803 
L 259.875685 534.254669 
L 260.057403 535.062263 
L 260.784274 528.721078 
L 261.511146 515.124531 
L 261.874582 516.739718 
L 262.419736 511.920848 
L 262.601454 512.728441 
L 262.783172 511.118112 
L 263.146607 512.733299 
L 264.236915 503.028666 
L 264.600351 504.643853 
L 264.782069 503.019274 
L 265.508941 489.166857 
L 265.690658 487.525784 
L 266.599248 469.431852 
L 266.962684 466.105728 
L 267.144402 461.963543 
L 267.32612 462.771137 
L 268.23471 454.397426 
L 268.598145 448.539929 
L 268.961581 445.162566 
L 269.688453 430.850752 
L 270.597043 422.293045 
L 271.323914 407.796697 
L 271.68735 404.327062 
L 272.59594 385.371919 
L 273.322812 378.324093 
L 273.686247 372.206561 
L 274.231401 366.875867 
L 275.139991 347.527764 
L 275.866863 340.303248 
L 276.412016 329.603982 
L 277.138888 322.293634 
L 277.86576 306.984687 
L 278.229196 303.280998 
L 279.137785 283.262087 
L 279.319503 281.384285 
L 280.046375 265.746671 
L 280.773247 258.139748 
L 281.863554 232.971392 
L 282.22699 229.095841 
L 282.590426 216.938351 
L 282.772144 214.983512 
L 282.953862 215.791106 
L 283.499016 209.910704 
L 284.771041 176.496961 
L 284.952759 177.304554 
L 285.134477 175.301334 
L 285.497913 162.821282 
L 285.679631 157.971466 
L 285.861349 158.77906 
L 286.588221 150.661269 
L 286.951656 140.883536 
L 287.49681 151.855216 
L 287.860246 147.773948 
L 288.223682 149.389135 
L 288.4054 153.04636 
L 288.587118 151.004322 
L 288.768836 151.811916 
L 289.31399 139.944222 
L 289.495707 143.615571 
L 289.677425 144.423164 
L 289.859143 142.367002 
L 290.040861 143.174595 
L 290.222579 138.246146 
L 290.404297 139.05374 
L 290.586015 136.989035 
L 290.949451 144.345965 
L 291.131169 145.153559 
L 291.312887 140.219409 
L 291.494605 143.899301 
L 291.676323 144.706894 
L 292.039758 137.696605 
L 292.403194 133.547134 
L 293.493502 106.479793 
L 294.58381 93.76857 
L 295.310681 76.380254 
L 296.219271 65.599961 
L 296.582707 58.287569 
L 297.127861 60.710349 
L 298.03645 49.807432 
L 298.399886 51.422619 
L 298.94504 44.843636 
L 299.85363 48.881604 
L 300.035347 46.682365 
L 300.943937 50.720333 
L 301.125655 48.517961 
L 301.670809 50.940742 
L 301.852527 54.7583 
L 302.215963 50.350418 
L 303.669706 56.811166 
L 304.033142 64.449422 
L 304.578296 66.872202 
L 304.760014 70.686628 
L 306.940629 80.377749 
L 307.122347 84.189048 
L 307.667501 86.611829 
L 308.757808 109.41433 
L 308.939526 110.221924 
L 309.48468 121.581489 
L 309.666398 122.389083 
L 309.848116 126.169472 
L 310.029834 126.977065 
L 311.483577 157.110681 
L 311.665295 157.918274 
L 311.847013 161.671383 
L 312.028731 162.478976 
L 312.755603 177.461468 
L 313.119039 187.859475 
L 313.482474 195.315075 
L 313.84591 205.668802 
L 314.209346 207.283989 
L 314.572782 214.710219 
L 314.7545 215.517812 
L 315.117936 222.932376 
L 315.299654 229.527727 
L 315.481372 230.33532 
L 315.66309 234.03245 
L 316.208243 253.732013 
L 316.389961 254.539607 
L 316.935115 265.562186 
L 317.116833 266.369779 
L 317.480269 279.411685 
L 317.661987 280.219278 
L 317.843705 283.876503 
L 318.025423 284.684097 
L 318.207141 288.338513 
L 318.388859 289.146107 
L 319.11573 312.226075 
L 319.660884 323.114249 
L 319.842602 323.921842 
L 320.206038 333.977688 
L 320.387756 337.593363 
L 320.569474 335.592875 
L 320.93291 342.821498 
L 321.114627 343.629092 
L 321.659781 354.451627 
L 321.841499 355.25922 
L 322.023217 361.653112 
L 322.204935 362.460705 
L 322.568371 372.435136 
L 322.750089 376.023778 
L 323.113525 388.736462 
L 323.295243 389.544055 
L 323.658679 402.21427 
L 323.840396 403.021864 
L 324.203832 410.14874 
L 324.748986 412.571521 
L 325.475858 426.793826 
L 325.839294 436.625601 
L 326.021012 437.433195 
L 326.566165 448.049259 
L 326.747883 448.856853 
L 326.929601 452.390385 
L 327.111319 453.197979 
L 327.293037 456.728941 
L 327.656473 458.344128 
L 328.019909 468.114052 
L 328.928499 485.6923 
L 329.110216 486.499893 
L 329.473652 493.513472 
L 330.382242 497.551439 
L 331.109114 511.548426 
L 331.290832 512.356019 
L 332.199421 529.796068 
L 332.926293 533.026442 
L 333.108011 536.507007 
L 335.83378 548.620909 
L 336.197216 555.57463 
L 336.378934 556.382224 
L 336.560652 559.855389 
L 337.105805 562.27817 
L 337.287523 565.748878 
L 337.469241 566.556472 
L 337.650959 570.024727 
L 338.014395 571.639914 
L 338.196113 575.105721 
L 338.377831 575.913315 
L 338.559549 579.376678 
L 339.104703 581.799458 
L 339.286421 585.260383 
L 340.376728 590.105943 
L 340.740164 597.020492 
L 341.648754 601.058459 
L 341.830472 599.217587 
L 343.465933 606.485928 
L 343.647651 609.941987 
L 345.283112 617.210329 
L 345.46483 615.369457 
L 346.009984 617.792237 
L 346.191702 615.948935 
L 346.555138 617.564122 
L 347.100292 612.019588 
L 347.28201 615.485395 
L 347.463728 616.292988 
L 347.827163 612.5893 
L 348.008881 613.396893 
L 348.372317 609.683393 
L 348.917471 612.106174 
L 349.280907 608.382827 
L 356.367906 639.878972 
L 356.731342 636.145741 
L 357.276496 638.568521 
L 357.458214 636.698188 
L 357.639932 637.505781 
L 358.185085 631.879854 
L 358.548521 633.495041 
L 359.093675 627.846626 
L 359.275393 628.654219 
L 359.457111 626.766395 
L 362.001162 638.072704 
L 362.18288 636.182362 
L 363.09147 640.22033 
L 363.273188 638.327466 
L 363.636623 639.942653 
L 363.818341 638.047263 
L 364.000059 641.55784 
L 364.363495 643.173027 
L 364.726931 636.671664 
L 364.908649 634.768665 
L 365.090367 635.576259 
L 365.453803 631.762619 
L 365.635521 635.285901 
L 366.180674 629.553945 
L 366.362392 633.082343 
L 367.270982 637.12031 
L 367.4527 635.207099 
L 367.997854 637.62988 
L 368.179572 635.714104 
L 369.451597 641.367259 
L 369.815033 634.7969 
L 369.996751 638.335587 
L 370.541905 640.758367 
L 370.723623 638.834867 
L 370.905341 639.642461 
L 371.268776 635.787703 
L 371.450494 642.065241 
L 371.632212 642.872835 
L 371.995648 639.018077 
L 372.359084 629.662205 
L 372.540802 630.469799 
L 372.72252 628.528105 
L 373.085956 630.143292 
L 373.267674 625.444448 
L 373.449392 626.252042 
L 373.812828 622.350276 
L 373.994545 623.15787 
L 374.176263 626.725256 
L 374.903135 629.95563 
L 375.084853 633.520383 
L 375.266571 634.327977 
L 375.630007 641.4496 
L 376.538596 645.487568 
L 376.902032 641.596318 
L 377.08375 642.403911 
L 377.265468 640.454346 
L 377.447186 635.739713 
L 377.628904 639.309739 
L 377.810622 640.117333 
L 377.99234 638.162494 
L 378.174058 638.970087 
L 378.355776 637.012604 
L 378.537494 640.585274 
L 378.719212 638.627791 
L 378.90093 633.897279 
L 379.082648 634.704872 
L 379.264365 641.050571 
L 379.627801 634.354613 
L 379.809519 635.162207 
L 379.991237 633.194096 
L 380.172955 634.00169 
L 380.354673 629.249862 
L 380.536391 630.057455 
L 380.718109 633.646097 
L 380.899827 634.45369 
L 381.081545 632.480236 
L 381.263263 633.287829 
L 381.808416 627.351365 
L 381.990134 628.158959 
L 382.35357 635.349662 
L 382.535288 633.370842 
L 382.717006 634.178436 
L 383.080442 630.212721 
L 383.26216 631.020314 
L 383.443878 634.619707 
L 384.352468 638.657674 
L 384.715903 634.686563 
L 384.897621 641.080454 
L 385.442775 635.119731 
L 385.624493 635.927325 
L 385.806211 633.935002 
L 386.169647 627.13412 
L 386.351365 625.1309 
L 386.533083 625.938493 
L 386.714801 621.116242 
L 386.896519 624.740129 
L 387.078237 625.547723 
L 387.259954 629.168867 
L 387.62339 625.154209 
L 387.805108 628.778097 
L 388.168544 630.393284 
L 388.350262 634.014428 
L 388.53198 634.822022 
L 388.713698 632.816064 
L 389.258852 635.238844 
L 389.44057 638.859989 
L 389.622288 636.854031 
L 389.804005 637.661625 
L 389.985723 641.28277 
L 390.167441 642.090363 
L 390.349159 645.70877 
L 390.530877 646.516364 
L 391.076031 640.498485 
L 391.439467 642.113672 
L 391.621185 645.73756 
L 391.984621 641.71741 
L 392.166339 636.878652 
L 392.348057 637.686246 
L 392.529774 635.66652 
L 392.711492 639.301433 
L 393.256646 641.724213 
L 393.620082 637.681991 
L 393.983518 639.297178 
L 394.165236 637.271907 
L 394.346954 638.0795 
L 394.71039 634.02061 
L 394.892108 629.14296 
L 395.073825 629.950553 
L 395.255543 627.911324 
L 395.437261 628.718917 
L 395.618979 626.676879 
L 395.982415 628.292066 
L 396.164133 631.949291 
L 396.709287 634.372072 
L 396.891005 632.330034 
L 397.072723 633.137627 
L 397.254441 631.092776 
L 397.617877 632.707963 
L 397.981312 628.609796 
L 398.344748 621.63371 
L 398.526466 619.571858 
L 398.708184 623.248896 
L 399.435056 626.47927 
L 399.616774 633.017217 
L 399.798492 630.961055 
L 400.343645 633.383835 
L 400.707081 626.390682 
L 400.888799 627.198275 
L 401.070517 625.130712 
L 401.252235 625.938305 
L 401.433953 620.986986 
L 401.797389 622.602173 
L 402.342543 633.659023 
L 402.524261 634.466616 
L 402.705979 638.146508 
L 402.887697 638.954101 
L 403.069414 636.889397 
L 403.43285 638.504584 
L 404.159722 630.217121 
L 404.34144 633.908482 
L 404.523158 628.945659 
L 404.886594 630.560846 
L 405.068312 628.478904 
L 405.25003 629.286497 
L 405.431748 632.983627 
L 405.613465 633.79122 
L 405.795183 631.709278 
L 405.976901 632.516871 
L 406.158619 627.536707 
L 406.340337 631.239629 
L 406.703773 627.061254 
L 406.885491 627.868848 
L 407.430645 621.579442 
L 407.612363 622.387036 
L 407.794081 620.284719 
L 407.975799 621.092312 
L 408.157517 618.987061 
L 408.339234 619.794654 
L 408.520952 623.515093 
L 410.156414 630.783434 
L 410.338132 628.678183 
L 410.51985 632.398621 
L 411.065003 634.821401 
L 411.246721 638.538905 
L 411.428439 639.346499 
L 411.610157 637.244182 
L 411.791875 638.051775 
L 412.882183 625.376048 
L 413.245619 618.190578 
L 413.427337 618.998171 
L 413.609054 616.866244 
L 413.97249 618.481431 
L 414.154208 616.34651 
L 415.426234 621.999664 
L 415.607952 625.749772 
L 417.243413 633.018113 
L 417.425131 630.883192 
L 418.515439 635.728753 
L 418.697157 633.590832 
L 418.878874 634.398425 
L 419.24231 630.113557 
L 419.424028 630.92115 
L 420.332618 620.156044 
L 420.514336 620.963638 
L 420.696054 618.801492 
L 421.05949 620.416679 
L 421.241208 618.251477 
L 424.875566 634.403347 
L 425.057284 632.235082 
L 425.784156 635.465456 
L 426.147592 631.119716 
L 426.511028 632.734903 
L 426.692746 630.557413 
L 426.874463 631.365007 
L 427.601335 622.624108 
L 427.964771 624.239295 
L 428.328207 619.850191 
L 431.780848 635.194467 
L 432.507719 626.37869 
L 432.689437 627.186283 
L 433.598027 616.095577 
L 434.324899 619.325951 
L 434.506617 617.09828 
L 439.049565 637.288116 
L 439.231283 635.057252 
L 439.413001 635.864846 
L 439.594719 633.630782 
L 439.776437 634.438375 
L 440.866744 620.966431 
L 441.048462 621.774025 
L 441.23018 619.517377 
L 441.411898 620.32497 
L 441.593616 618.065068 
L 444.319385 630.17897 
L 444.501103 627.915808 
L 445.773128 633.568962 
L 446.136564 629.032827 
L 446.318282 629.84042 
L 447.590308 613.860208 
L 452.496692 635.665232 
L 452.67841 633.369077 
L 452.860128 634.176671 
L 453.405281 627.268148 
L 453.586999 628.075741 
L 453.768717 625.76619 
L 453.950435 626.573784 
L 454.313871 621.944572 
L 454.495589 622.752166 
L 454.677307 620.432491 
L 455.222461 622.855272 
L 455.404179 620.532208 
L 455.585897 621.339802 
L 455.767614 619.013342 
L 459.765409 636.780398 
L 460.128845 632.117259 
L 460.310563 632.924853 
L 461.582588 616.495787 
L 461.946024 618.110974 
L 462.127742 615.75014 
L 464.671793 627.056449 
L 464.853511 624.692136 
L 465.035229 625.499729 
L 465.216947 623.13193 
L 465.398665 623.939523 
L 466.307254 612.047957 
L 466.488972 606.459061 
L 466.67069 607.266654 
L 466.852408 604.870684 
L 467.034126 605.678277 
L 467.215844 603.27875 
L 468.124434 607.316718 
L 468.306152 611.331432 
L 470.305049 620.21496 
L 470.486767 617.815433 
L 470.850203 619.43062 
L 471.395357 612.21062 
L 471.758792 613.825807 
L 471.94051 611.411975 
L 472.122228 605.765919 
L 472.303946 606.573512 
L 472.667382 601.7206 
L 473.212536 604.143381 
L 473.575972 599.275954 
L 473.75769 600.083547 
L 473.939408 604.134266 
L 474.121126 604.94186 
L 474.302843 602.506328 
L 475.029715 605.736702 
L 475.211433 603.297525 
L 475.393151 604.105118 
L 475.756587 599.215797 
L 475.938305 600.023391 
L 476.120023 604.085069 
L 476.301741 601.638578 
L 476.846895 604.061358 
L 477.028612 608.123036 
L 477.21033 605.676545 
L 477.573766 607.291732 
L 477.937202 599.122613 
L 478.11892 599.930206 
L 478.482356 595.004064 
L 478.845792 583.491987 
L 479.02751 584.29958 
L 479.390946 579.328698 
L 479.572663 583.431203 
L 480.299535 586.661577 
L 480.662971 594.855334 
L 480.844689 592.375515 
L 481.208125 600.56179 
L 481.389843 598.085708 
L 481.571561 598.893302 
L 482.116715 591.4426 
L 482.48015 579.84043 
L 482.661868 580.648023 
L 483.207022 573.117948 
L 483.570458 564.74587 
L 483.752176 562.216688 
L 483.933894 563.024281 
L 484.29733 571.30917 
L 484.479048 568.783837 
L 484.660766 569.591431 
L 484.842483 567.062248 
L 485.205919 568.677435 
L 485.569355 576.962325 
L 485.932791 571.907809 
L 486.296227 573.522996 
L 486.659663 568.453046 
L 486.841381 569.26064 
L 487.204817 564.175183 
L 487.386535 558.266555 
L 487.74997 559.881742 
L 488.113406 551.393228 
L 488.295124 548.825053 
L 488.476842 549.632647 
L 488.65856 547.060522 
L 488.840278 551.247834 
L 489.021996 552.055427 
L 489.203714 556.238789 
L 489.56715 544.327169 
L 489.930586 545.942356 
L 490.475739 538.178302 
L 491.020893 523.542789 
L 491.384329 531.993385 
L 491.747765 526.773163 
L 492.292919 539.443002 
L 492.656355 541.058189 
L 493.01979 535.846044 
L 493.383226 527.189883 
L 493.564944 527.997476 
L 493.746662 521.937159 
L 493.92838 522.744753 
L 494.291816 514.027362 
L 494.473534 511.382533 
L 494.655252 512.190127 
L 494.83697 509.541168 
L 495.018688 513.805314 
L 495.563841 516.228094 
L 495.745559 510.118442 
L 496.290713 512.541222 
L 496.472431 506.414966 
L 496.654149 507.22256 
L 496.835867 504.556978 
L 497.017585 508.837747 
L 497.381021 500.020854 
L 497.926175 502.443635 
L 498.107892 499.76548 
L 498.28961 507.540369 
L 498.471328 504.866415 
L 498.653046 505.674009 
L 498.834764 499.505894 
L 499.016482 503.803447 
L 499.1982 504.611041 
L 499.743354 496.551269 
L 499.925072 497.358862 
L 500.10679 491.156896 
L 500.288508 491.964489 
L 500.470226 489.260914 
L 500.651943 490.068508 
L 500.833661 487.36066 
L 501.015379 488.168253 
L 501.197097 492.491288 
L 501.378815 493.298882 
L 502.832559 471.515582 
L 503.195995 462.467649 
L 504.649738 468.928397 
L 505.013174 463.412908 
L 505.558328 465.835688 
L 506.466917 451.969579 
L 506.830353 453.584766 
L 507.375507 445.211594 
L 508.647532 450.864749 
L 508.82925 448.064707 
L 510.101276 453.717861 
L 510.464712 448.104234 
L 510.64643 448.911827 
L 511.918455 429.120722 
L 518.823737 459.809274 
L 519.005455 456.963609 
L 520.640916 464.23195 
L 520.822634 468.692802 
L 521.004352 469.500396 
L 521.549506 460.949512 
L 521.731224 461.757106 
L 522.821531 444.529486 
L 523.366685 446.952266 
L 523.548403 444.064543 
L 523.911839 445.67973 
L 524.093557 450.18264 
L 525.729018 457.450981 
L 525.910736 454.563258 
L 546.808298 547.436508 
L 546.990016 544.544051 
L 548.625477 551.812392 
L 548.807195 556.320036 
L 549.534067 559.55041 
L 549.715785 556.657953 
L 550.260939 559.080734 
L 550.442657 556.183532 
L 550.806093 557.798719 
L 550.98781 554.89676 
L 552.441554 561.357508 
L 552.623272 558.45078 
L 552.80499 562.972695 
L 552.986708 560.065966 
L 553.350144 561.681153 
L 553.895297 552.932227 
L 554.077015 557.468525 
L 554.258733 554.547414 
L 554.440451 555.355008 
L 554.622169 552.429078 
L 554.803887 553.236671 
L 554.985605 550.305909 
L 555.712477 553.536283 
L 555.894195 550.600678 
L 562.254322 578.866449 
L 562.43604 575.925987 
L 564.071501 583.194328 
L 564.253219 587.749978 
L 564.434937 584.809515 
L 565.161809 588.039889 
L 565.525245 582.144345 
L 565.706963 582.951938 
L 565.888681 579.99683 
L 566.252117 581.612017 
L 566.79727 572.717198 
L 567.342424 575.139979 
L 567.524142 572.165164 
L 567.70586 572.972758 
L 567.887578 569.992985 
L 568.61445 573.223359 
L 568.796168 570.238614 
L 574.429424 595.274011 
L 574.611141 592.284281 
L 574.974577 593.899468 
L 575.156295 590.90474 
L 575.338013 591.712333 
L 575.519731 588.712594 
L 575.701449 589.520187 
L 575.883167 586.515423 
L 576.064885 587.323017 
L 576.246603 584.313215 
L 576.428321 588.938204 
L 576.791757 582.913549 
L 576.973475 583.721142 
L 577.155193 580.701225 
L 577.33691 581.508818 
L 577.518628 578.483823 
L 577.700346 579.291416 
L 577.882064 576.261329 
L 578.063782 577.068923 
L 578.2455 574.033731 
L 582.970166 595.031161 
L 583.151884 591.99085 
L 583.878756 595.221224 
L 584.060474 592.175782 
L 584.605628 594.598562 
L 584.787346 591.547973 
L 584.969064 592.355567 
L 585.332499 586.238896 
L 585.514217 587.04649 
L 585.695935 583.98038 
L 585.877653 584.787974 
L 586.422807 575.558381 
L 587.149679 578.788755 
L 587.331397 575.701756 
L 591.874345 595.891593 
L 592.056063 592.799336 
L 592.237781 593.60693 
L 592.419499 590.509401 
L 593.14637 593.739775 
L 593.509806 587.528846 
L 593.873242 589.144033 
L 594.05496 586.030603 
L 594.236678 586.838196 
L 594.418396 583.719437 
L 594.781832 585.334624 
L 594.96355 582.210521 
L 595.326986 583.825708 
L 595.508704 580.696247 
L 596.053857 583.119027 
L 596.599011 573.698346 
L 597.871037 579.351501 
L 598.052755 584.112312 
L 599.688216 591.380653 
L 599.869934 588.235029 
L 601.505395 595.50337 
L 601.687113 600.264182 
L 602.413985 603.494556 
L 602.595703 600.348931 
L 602.777421 601.156525 
L 602.959139 598.005483 
L 603.322575 599.62067 
L 603.504293 596.464196 
L 603.68601 597.27179 
L 604.049446 590.942486 
L 604.412882 592.557673 
L 604.5946 589.384813 
L 604.958036 591 
L 605.321472 584.637789 
L 605.684908 574.245421 
L 605.866626 575.053014 
L 606.048344 571.846972 
L 606.593497 574.269753 
L 606.775215 571.058127 
L 606.956933 571.86572 
L 607.502087 586.329422 
L 608.228959 589.559796 
L 608.592395 583.153281 
L 608.95583 584.768468 
L 609.137548 581.556842 
L 610.046138 585.594809 
L 610.409574 595.242851 
L 610.77301 596.858038 
L 610.954728 601.673698 
L 611.136446 598.473225 
L 612.590189 604.933973 
L 612.771907 601.727931 
L 612.953625 602.535524 
L 613.317061 588.040172 
L 613.498779 588.847766 
L 614.043933 579.128405 
L 614.407368 568.5502 
L 614.589086 569.357793 
L 614.770804 566.089459 
L 614.952522 566.897052 
L 615.13424 571.780574 
L 615.315958 568.512239 
L 615.861112 570.93502 
L 616.04283 575.818541 
L 616.406266 577.433728 
L 616.587984 582.311507 
L 617.496573 586.349474 
L 617.860009 579.818548 
L 618.041727 580.626141 
L 618.405163 574.072179 
L 618.586881 578.967235 
L 619.313753 582.197609 
L 619.677188 591.970411 
L 619.858906 588.702076 
L 620.222342 598.463376 
L 620.40406 595.200785 
L 621.130932 598.431159 
L 621.494368 591.88873 
L 621.676086 596.778011 
L 621.857804 597.585604 
L 622.584675 584.454513 
L 622.948111 573.7375 
L 623.311547 575.352687 
L 623.674983 564.582802 
L 623.856701 561.25021 
L 624.038419 562.057804 
L 624.220137 558.71927 
L 624.401855 559.526864 
L 624.583573 564.480584 
L 625.67388 569.326145 
L 625.855598 574.273924 
L 626.764188 578.311891 
L 626.945906 574.9793 
L 627.491059 577.40208 
L 627.672777 574.063546 
L 627.854495 579.017267 
L 628.581367 582.247641 
L 628.763085 587.195419 
L 628.944803 588.003013 
L 629.126521 584.670421 
L 629.308239 589.6182 
L 629.489957 590.425793 
L 629.671675 587.093202 
L 630.398546 590.323576 
L 630.761982 579.482487 
L 630.9437 584.448143 
L 631.125418 581.097674 
L 631.307136 586.06333 
L 631.488854 582.712861 
L 632.215726 552.4615 
L 632.579162 566.677857 
L 632.760879 559.090781 
L 632.942597 559.898375 
L 633.124315 556.499468 
L 633.487751 558.114655 
L 634.032905 573.138605 
L 634.214623 569.751913 
L 634.759777 572.174693 
L 634.941495 568.781903 
L 635.123213 573.78988 
L 635.486648 575.405067 
L 635.850084 568.61337 
L 636.031802 569.420963 
L 636.21352 566.015923 
L 636.395238 566.823516 
L 636.576956 563.412323 
L 636.758674 564.219917 
L 636.940392 560.802553 
L 637.12211 565.835103 
L 637.303828 566.642697 
L 637.485546 571.669077 
L 637.667264 572.47667 
L 637.848982 569.065477 
L 638.030699 574.091857 
L 638.394135 575.707044 
L 638.575853 580.727272 
L 638.757571 581.534866 
L 639.121007 574.718632 
L 639.302725 575.526225 
L 639.666161 585.572833 
L 639.847879 582.167792 
L 640.029597 582.975386 
L 640.211315 587.995613 
L 640.393033 588.803207 
L 640.574751 593.817301 
L 640.938186 587.013353 
L 641.48334 568.280319 
L 641.665058 573.331488 
L 642.210212 563.004795 
L 642.39193 555.281372 
L 642.573648 560.357623 
L 642.755366 561.165216 
L 642.937084 566.235169 
L 643.118802 567.042762 
L 643.300519 572.106436 
L 643.482237 568.657949 
L 643.663955 573.721622 
L 643.845673 570.273136 
L 644.209109 571.888323 
L 644.390827 568.433557 
L 644.754263 570.048744 
L 645.117699 563.120299 
L 645.299417 563.927893 
L 645.481135 560.454176 
L 645.662853 561.261769 
L 645.844571 557.781698 
L 646.934878 562.627259 
L 647.116596 559.140815 
L 647.298314 564.242446 
L 648.206904 568.280413 
L 648.388622 564.793969 
L 648.933775 580.079762 
L 649.115493 576.606045 
L 649.297211 577.413639 
L 649.842365 592.661362 
L 650.205801 594.276549 
L 650.932673 580.394316 
L 651.114391 581.201909 
L 651.296108 577.715465 
L 651.477826 578.523058 
L 651.841262 567.217701 
L 652.02298 563.705572 
L 652.204698 564.513166 
L 652.386416 560.994568 
L 653.113288 564.224942 
L 653.295006 556.360669 
L 653.840159 558.783449 
L 654.021877 555.245328 
L 654.203595 556.052921 
L 654.385313 552.508252 
L 654.567031 557.668108 
L 654.930467 550.572203 
L 655.657339 553.802577 
L 655.839057 558.969 
L 656.202493 560.584187 
L 656.384211 557.032951 
L 656.565928 562.199374 
L 657.2928 565.429748 
L 657.656236 558.32069 
L 658.20139 560.74347 
L 658.383108 557.179041 
L 658.564826 557.986634 
L 658.928262 568.33926 
L 659.109979 564.781437 
L 659.473415 566.396624 
L 659.655133 562.832195 
L 659.836851 563.639788 
L 660.018569 560.068732 
L 660.200287 560.876326 
L 660.382005 557.298623 
L 660.563723 549.315602 
L 661.108877 551.738382 
L 661.290595 548.140617 
L 661.472313 553.353569 
L 661.654031 549.755804 
L 661.835748 550.563397 
L 662.017466 546.958903 
L 662.380902 548.57409 
L 662.56262 540.537242 
L 663.107774 542.960022 
L 663.289492 539.33522 
L 665.651825 549.833935 
L 665.833543 555.073925 
L 666.742133 559.111892 
L 666.923851 555.487089 
L 667.469004 557.90987 
L 667.650722 554.278256 
L 667.83244 555.08585 
L 668.014158 551.447404 
L 668.195876 552.254997 
L 668.559312 544.957525 
L 668.74103 545.765118 
L 669.64962 527.400387 
L 669.831337 528.20798 
L 670.013055 524.51411 
L 675.101157 547.126728 
L 675.828029 532.280775 
L 676.009747 533.088368 
L 676.918337 514.370696 
L 677.645208 517.60107 
L 677.826926 513.835946 
L 681.461285 529.987816 
L 681.643003 526.215442 
L 682.733311 531.061003 
L 683.096746 523.494415 
L 683.460182 525.109602 
L 684.55049 502.233429 
L 684.913926 503.848616 
L 685.095644 500.009946 
L 688.184848 513.739035 
L 688.366566 509.892881 
L 688.548284 510.700474 
L 688.730002 506.84681 
L 688.91172 507.654404 
L 690.002028 484.373364 
L 690.183746 489.887783 
L 691.819207 497.156124 
L 692.182643 489.349978 
L 692.364361 490.157572 
L 692.546079 486.242952 
L 697.089027 506.432788 
L 697.270745 502.510437 
L 697.452463 503.31803 
L 697.634181 499.387921 
L 697.997617 501.003108 
L 698.179335 497.065216 
L 698.724488 499.487996 
L 698.906206 495.542296 
L 699.087924 496.34989 
L 699.269642 492.396356 
L 699.633078 494.011543 
L 699.814796 490.050149 
L 700.178232 491.665336 
L 700.541668 483.718864 
L 701.631975 488.564425 
L 701.813693 494.156803 
L 701.995411 490.179612 
L 702.358847 491.794799 
L 702.540565 497.387177 
L 702.722283 498.194771 
L 702.904001 503.779238 
L 703.085719 504.586831 
L 703.267437 500.617551 
L 704.176026 504.655519 
L 704.357744 500.678327 
L 704.539462 501.48592 
L 704.72118 497.50079 
L 705.266334 499.92357 
L 705.448052 495.930476 
L 712.535051 527.426621 
L 712.716769 523.425535 
L 713.988795 529.07869 
L 714.352231 521.052437 
L 714.533949 526.684773 
L 715.26082 529.915147 
L 715.442538 525.897998 
L 715.805974 527.513185 
L 716.16941 538.769811 
L 717.078 542.807779 
L 717.259717 548.424052 
L 717.804871 550.846832 
L 717.986589 546.845746 
L 718.168307 547.65334 
L 718.350025 543.644236 
L 718.531743 544.451829 
L 718.895179 536.409461 
L 719.076897 537.217054 
L 719.622051 525.092694 
L 719.803769 525.900288 
L 719.985486 521.84251 
L 720.167204 522.650104 
L 720.348922 518.584118 
L 720.712358 520.199305 
L 720.894076 516.125083 
L 721.620948 519.355457 
L 721.802666 525.044865 
L 723.438127 532.313207 
L 723.619845 528.238985 
L 733.069177 570.233846 
L 733.250895 566.15136 
L 734.886357 573.419701 
L 735.068075 579.117374 
L 735.431511 570.944111 
L 736.3401 574.982078 
L 736.521818 570.882981 
L 737.612126 575.728542 
L 738.15728 563.381046 
L 738.520715 564.996233 
L 738.702433 560.863572 
L 739.065869 562.478758 
L 739.247587 558.337634 
L 739.429305 559.145227 
L 739.792741 570.649388 
L 740.156177 572.264575 
L 740.337895 568.131913 
L 741.064766 571.362287 
L 741.60992 558.913407 
L 749.968945 596.062707 
L 750.150663 591.896019 
L 750.877535 595.126393 
L 751.059253 590.951124 
L 751.422689 592.566311 
L 751.604406 588.382433 
L 751.967842 589.99762 
L 752.512996 577.394028 
L 753.05815 579.816809 
L 753.239868 575.598192 
L 753.96674 578.828566 
L 754.148458 584.66237 
L 754.330175 585.469963 
L 754.511893 581.251346 
L 754.693611 582.05894 
L 754.875329 577.831563 
L 755.238765 579.44675 
L 755.420483 575.210582 
L 755.783919 576.825769 
L 755.965637 572.58078 
L 766.505277 619.421201 
L 766.868713 605.8254 
L 767.413866 608.24818 
L 767.595584 603.967594 
L 767.777302 604.775187 
L 767.95902 600.485623 
L 768.140738 601.293216 
L 768.322456 596.994642 
L 768.504174 602.908403 
L 768.86761 604.52359 
L 769.049328 600.225016 
L 769.412764 601.840203 
L 769.594482 597.532588 
L 769.7762 598.340181 
L 769.957918 594.023492 
L 770.503071 596.446272 
L 771.048225 583.441441 
L 772.138533 588.287002 
L 772.320251 583.933694 
L 772.501969 584.741288 
L 772.683686 590.709782 
L 773.955712 596.362936 
L 774.13743 602.322227 
L 775.772891 609.590568 
L 775.954609 605.246464 
L 777.590071 612.514806 
L 777.771789 618.474097 
L 779.952404 628.165218 
L 780.134122 623.821114 
L 780.31584 624.628708 
L 780.497558 620.2754 
L 781.224429 623.505774 
L 781.587865 609.582707 
L 782.496455 613.620674 
L 783.041609 600.421171 
L 783.223326 606.445585 
L 783.76848 608.868366 
L 783.950198 604.459139 
L 784.131916 605.266732 
L 784.67707 591.982287 
L 784.858788 592.78988 
L 785.403942 579.419563 
L 786.130813 582.649937 
L 786.494249 594.803443 
L 786.675967 590.346683 
L 787.039403 602.481002 
L 787.221121 598.033817 
L 788.311429 602.879378 
L 788.493147 608.94175 
L 788.856582 610.556937 
L 789.0383 616.609767 
L 789.220018 617.417361 
L 789.401736 612.979717 
L 790.128608 616.210091 
L 790.310326 611.762906 
L 790.492044 612.5705 
L 791.037198 599.17135 
L 791.218915 605.262554 
L 791.945787 608.492928 
L 792.127505 614.574487 
L 792.309223 615.38208 
L 792.672659 627.5164 
L 793.581249 631.554367 
L 793.944684 622.650422 
L 794.126402 623.458015 
L 794.489838 609.222334 
L 794.671556 615.32322 
L 795.398428 618.553593 
L 795.761864 630.726356 
L 795.943582 626.259985 
L 796.1253 637.605897 
L 796.307018 638.413491 
L 796.670453 624.206748 
L 796.852171 625.014341 
L 797.033889 620.528642 
L 797.397325 622.143829 
L 797.579043 612.335651 
L 797.760761 613.143245 
L 797.942479 608.628288 
L 798.124197 609.435881 
L 798.305915 615.566025 
L 798.669351 606.526286 
L 798.851069 612.666255 
L 799.214504 603.60683 
L 799.396222 609.75666 
L 799.57794 605.222017 
L 799.759658 611.371847 
L 800.123094 602.292664 
L 800.48653 603.907851 
L 800.668248 599.353376 
L 801.213402 601.776156 
L 801.39512 607.945818 
L 801.576838 608.753411 
L 801.940273 621.062969 
L 802.848863 625.100936 
L 803.757453 602.328377 
L 803.939171 608.518019 
L 804.666042 611.748392 
L 804.84776 617.928026 
L 805.029478 618.735619 
L 805.211196 614.171173 
L 805.574632 626.520468 
L 805.75635 621.965993 
L 806.483222 625.196367 
L 806.66494 620.631921 
L 806.846658 621.439514 
L 807.028375 627.619147 
L 807.391811 629.234334 
L 807.573529 635.403996 
L 808.118683 621.71062 
L 808.300401 622.518214 
L 808.663837 634.887489 
L 808.845555 630.323042 
L 809.027273 631.130636 
L 809.027273 631.130636 
" clip-path="url(#p7f39bd9a47)" style="fill: none; stroke: #1f77b4; stroke-width: 1.5; stroke-linecap: square"/>
   </g>
   <g id="line2d_22">
    <path d="M 146.665414 600.166158 
L 149.209465 599.647037 
L 151.39008 598.991063 
L 153.388977 598.155563 
L 155.206156 597.142777 
L 156.841618 595.972473 
L 158.477079 594.502544 
L 159.930823 592.896055 
L 161.384566 590.958551 
L 162.838309 588.638781 
L 164.292053 585.881625 
L 165.745796 582.628769 
L 167.19954 578.819637 
L 168.653283 574.392605 
L 170.107027 569.286511 
L 171.742488 562.657278 
L 173.377949 555.017075 
L 175.013411 546.299926 
L 176.83059 535.290583 
L 178.647769 522.85093 
L 180.646667 507.516506 
L 182.827282 488.893674 
L 185.189615 466.708465 
L 188.097102 437.130263 
L 197.728152 337.028858 
L 199.727049 319.638133 
L 201.362511 307.212543 
L 202.816254 297.773466 
L 204.08828 290.895645 
L 205.178587 286.10491 
L 206.087177 282.930656 
L 206.995767 280.525312 
L 207.722638 279.16683 
L 208.44951 278.318443 
L 208.994664 278.019427 
L 209.539818 278.010462 
L 210.084972 278.291565 
L 210.630125 278.861967 
L 211.175279 279.720125 
L 211.902151 281.307837 
L 212.81074 283.994146 
L 213.71933 287.441175 
L 214.809638 292.545538 
L 216.081663 299.766144 
L 217.535407 309.560557 
L 219.170868 322.331856 
L 220.988047 338.362606 
L 223.35038 361.416699 
L 226.803021 397.718925 
L 232.072841 453.110695 
L 234.79861 479.269949 
L 236.979225 498.157063 
L 238.978123 513.578113 
L 240.795302 525.873172 
L 242.430763 535.454195 
L 243.884507 542.748582 
L 245.33825 548.865722 
L 246.610276 553.235709 
L 247.700583 556.240996 
L 248.609173 558.21677 
L 249.517763 559.706211 
L 250.244634 560.54357 
L 250.971506 561.062377 
L 251.51666 561.240158 
L 252.061814 561.23487 
L 252.606967 561.044631 
L 253.333839 560.499782 
L 253.878993 559.869935 
L 253.878993 559.869935 
" clip-path="url(#p7f39bd9a47)" style="fill: none; stroke: #ff0000; stroke-width: 1.5; stroke-linecap: square"/>
   </g>
   <g id="line2d_23">
    <path d="M 254.060711 559.617399 
L 254.787583 558.391925 
L 255.696172 556.368512 
L 256.604762 553.787291 
L 257.695069 549.934969 
L 258.785377 545.236726 
L 260.057403 538.65395 
L 261.329428 530.848765 
L 262.783172 520.38605 
L 264.236915 508.234152 
L 265.872376 492.502684 
L 267.507838 474.569281 
L 269.325017 452.080312 
L 271.323914 424.331118 
L 273.50453 390.732453 
L 276.048581 347.79757 
L 279.319503 288.493454 
L 285.497913 175.724322 
L 287.860246 137.22871 
L 289.677425 111.057551 
L 291.312887 90.727201 
L 292.584912 77.343611 
L 293.856938 66.298162 
L 294.947245 58.814832 
L 295.855835 54.041193 
L 296.582707 51.206403 
L 297.309578 49.261702 
L 297.854732 48.393208 
L 298.218168 48.096645 
L 298.581604 48.026497 
L 298.94504 48.182851 
L 299.308476 48.565518 
L 299.85363 49.562753 
L 300.398783 51.065322 
L 301.125655 53.847476 
L 301.852527 57.506903 
L 302.761116 63.287341 
L 303.851424 71.933967 
L 304.941732 82.357399 
L 306.213757 96.614824 
L 307.667501 115.422973 
L 309.48468 142.198834 
L 311.665295 178.144046 
L 314.572782 230.331776 
L 322.204935 369.456677 
L 324.748986 410.859779 
L 326.929601 442.949274 
L 328.928499 469.30212 
L 330.745678 490.620442 
L 332.562857 509.43153 
L 334.198319 524.279858 
L 335.83378 537.252423 
L 337.469241 548.470054 
L 339.104703 558.072387 
L 340.558446 565.37364 
L 342.01219 571.627199 
L 343.465933 576.94228 
L 344.919676 581.425375 
L 346.37342 585.178222 
L 347.827163 588.296287 
L 349.280907 590.867723 
L 350.73465 592.972732 
L 352.188394 594.683304 
L 353.642137 596.06323 
L 355.277599 597.289671 
L 356.91306 598.236337 
L 358.730239 599.029294 
L 360.729136 599.660221 
L 363.09147 600.168083 
L 365.998956 600.553507 
L 369.815033 600.81878 
L 375.630007 600.972449 
L 388.350262 601.02505 
L 408.339234 601.027046 
L 408.339234 601.027046 
" clip-path="url(#p7f39bd9a47)" style="fill: none; stroke: #008000; stroke-width: 1.5; stroke-linecap: square"/>
   </g>
   <g id="line2d_24">
    <path d="M 408.520952 601.027045 
L 443.047359 600.919091 
L 449.407487 600.676001 
L 453.586999 600.30711 
L 456.857922 599.802949 
L 459.583691 599.161528 
L 461.946024 598.380492 
L 464.126639 597.418321 
L 466.125537 596.283045 
L 467.942716 594.997714 
L 469.759895 593.428851 
L 471.395357 591.738268 
L 473.030818 589.749272 
L 474.666279 587.428109 
L 476.301741 584.741465 
L 477.937202 581.657551 
L 479.754381 577.729896 
L 481.571561 573.242437 
L 483.38874 568.170434 
L 485.387637 561.900703 
L 487.386535 554.910232 
L 489.56715 546.49437 
L 492.111201 535.731404 
L 495.018688 522.422487 
L 499.925072 498.69328 
L 503.922866 479.821646 
L 506.466917 468.892771 
L 508.465815 461.25814 
L 510.101276 455.79733 
L 511.555019 451.62844 
L 512.827045 448.562926 
L 514.09907 446.079718 
L 515.189378 444.43784 
L 516.097968 443.424302 
L 517.006557 442.740144 
L 517.733429 442.432953 
L 518.460301 442.340628 
L 519.187172 442.463544 
L 519.914044 442.801201 
L 520.640916 443.352227 
L 521.549506 444.337574 
L 522.458095 445.646535 
L 523.548403 447.63274 
L 524.820428 450.499855 
L 526.092454 453.925913 
L 527.546197 458.473221 
L 529.181659 464.31096 
L 531.180556 472.328478 
L 533.542889 482.774517 
L 536.99553 499.195238 
L 543.537375 530.492072 
L 546.444862 543.189989 
L 548.807195 552.584137 
L 550.98781 560.415011 
L 552.986708 566.844299 
L 554.985605 572.548927 
L 556.802784 577.117617 
L 558.619964 581.122031 
L 560.437143 584.594606 
L 562.254322 587.574472 
L 564.071501 590.105079 
L 565.888681 592.232072 
L 567.70586 594.001475 
L 569.523039 595.4582 
L 571.340219 596.644899 
L 573.339116 597.685479 
L 575.519731 598.558183 
L 577.882064 599.25486 
L 580.607833 599.809535 
L 583.697038 600.198557 
L 587.331397 600.425577 
L 591.692627 600.471128 
L 596.780729 600.295043 
L 601.868831 599.893263 
L 606.411779 599.313067 
L 606.411779 599.313067 
" clip-path="url(#p7f39bd9a47)" style="fill: none; stroke: #ffa500; stroke-width: 1.5; stroke-linecap: square"/>
   </g>
   <g id="line2d_25">
    <path d="M 606.593497 599.284738 
L 610.591292 598.54371 
L 614.22565 597.642285 
L 617.496573 596.604445 
L 620.585778 595.39074 
L 623.493265 594.009366 
L 626.219034 592.476831 
L 628.944803 590.689852 
L 631.670572 588.625693 
L 634.396341 586.264014 
L 637.12211 583.588031 
L 639.847879 580.585763 
L 642.573648 577.251302 
L 645.481135 573.33013 
L 648.570339 568.765646 
L 651.841262 563.518708 
L 655.475621 557.257807 
L 660.018569 548.959167 
L 672.193671 526.448044 
L 675.464593 521.02248 
L 678.190362 516.919746 
L 680.552695 513.742229 
L 682.733311 511.167397 
L 684.732208 509.141042 
L 686.549387 507.597232 
L 688.366566 506.353603 
L 690.002028 505.501462 
L 691.637489 504.909749 
L 693.091233 504.606435 
L 694.544976 504.514803 
L 695.99872 504.635457 
L 697.452463 504.967601 
L 698.906206 505.509049 
L 700.541668 506.363884 
L 702.177129 507.47202 
L 703.994308 508.989237 
L 705.811488 510.792678 
L 707.810385 513.085652 
L 709.991 515.925485 
L 712.535051 519.633927 
L 715.442538 524.310446 
L 718.895179 530.329085 
L 723.619845 539.066484 
L 733.069177 556.641109 
L 737.066972 563.54721 
L 740.519613 569.071325 
L 743.608817 573.610104 
L 746.516304 577.505805 
L 749.423791 581.024824 
L 751.604406 583.416097 
L 751.604406 583.416097 
" clip-path="url(#p7f39bd9a47)" style="fill: none; stroke: #ff00ff; stroke-width: 1.5; stroke-linecap: square"/>
   </g>
   <g id="patch_3">
    <path d="M 47.72 676.6 
L 47.72 14.76 
" style="fill: none; stroke: #000000; stroke-width: 0.8; stroke-linejoin: miter; stroke-linecap: square"/>
   </g>
   <g id="patch_4">
    <path d="M 845.28 676.6 
L 845.28 14.76 
" style="fill: none; stroke: #000000; stroke-width: 0.8; stroke-linejoin: miter; stroke-linecap: square"/>
   </g>
   <g id="patch_5">
    <path d="M 47.72 676.6 
L 845.28 676.6 
" style="fill: none; stroke: #000000; stroke-width: 0.8; stroke-linejoin: miter; stroke-linecap: square"/>
   </g>
   <g id="patch_6">
    <path d="M 47.72 14.76 
L 845.28 14.76 
" style="fill: none; stroke: #000000; stroke-width: 0.8; stroke-linejoin: miter; stroke-linecap: square"/>
   </g>
   <g id="patch_7">
    <path d="M 209.283401 171.706504 
Q 209.283401 223.843179 209.283401 275.979854 
" style="fill: none; stroke: #ff0000; stroke-linecap: round"/>
   </g>
   <g id="text_13">
    <!-- $^{87}Rb:\ F = 1 \rightarrow \{0, 1, 2\}$ -->
    <g transform="translate(153.333401 132.031926) scale(0.1 -0.1)">
     <defs>
      <path id="DejaVuSans-37" d="M 525 4666 
L 3525 4666 
L 3525 4397 
L 1831 0 
L 1172 0 
L 2766 4134 
L 525 4134 
L 525 4666 
z
" transform="scale(0.015625)"/>
      <path id="DejaVuSans-Oblique-52" d="M 1613 4147 
L 1294 2491 
L 2106 2491 
Q 2584 2491 2879 2755 
Q 3175 3019 3175 3444 
Q 3175 3784 2976 3965 
Q 2778 4147 2406 4147 
L 1613 4147 
z
M 2772 2241 
Q 2972 2194 3105 2009 
Q 3238 1825 3413 1275 
L 3809 0 
L 3144 0 
L 2778 1197 
Q 2638 1659 2453 1815 
Q 2269 1972 1888 1972 
L 1191 1972 
L 806 0 
L 172 0 
L 1081 4666 
L 2503 4666 
Q 3150 4666 3495 4373 
Q 3841 4081 3841 3531 
Q 3841 3044 3547 2687 
Q 3253 2331 2772 2241 
z
" transform="scale(0.015625)"/>
      <path id="DejaVuSans-Oblique-62" d="M 3169 2138 
Q 3169 2591 2961 2847 
Q 2753 3103 2388 3103 
Q 2122 3103 1889 2973 
Q 1656 2844 1484 2597 
Q 1303 2338 1198 1995 
Q 1094 1653 1094 1313 
Q 1094 881 1298 636 
Q 1503 391 1863 391 
Q 2134 391 2365 517 
Q 2597 644 2772 891 
Q 2950 1147 3059 1487 
Q 3169 1828 3169 2138 
z
M 1381 2969 
Q 1594 3256 1914 3420 
Q 2234 3584 2584 3584 
Q 3122 3584 3439 3221 
Q 3756 2859 3756 2241 
Q 3756 1734 3570 1259 
Q 3384 784 3041 416 
Q 2816 172 2522 40 
Q 2228 -91 1906 -91 
Q 1566 -91 1316 65 
Q 1066 222 909 531 
L 806 0 
L 231 0 
L 1178 4863 
L 1753 4863 
L 1381 2969 
z
" transform="scale(0.015625)"/>
      <path id="DejaVuSans-3a" d="M 750 794 
L 1409 794 
L 1409 0 
L 750 0 
L 750 794 
z
M 750 3309 
L 1409 3309 
L 1409 2516 
L 750 2516 
L 750 3309 
z
" transform="scale(0.015625)"/>
      <path id="DejaVuSans-Oblique-46" d="M 1081 4666 
L 3756 4666 
L 3653 4134 
L 1606 4134 
L 1338 2759 
L 3188 2759 
L 3084 2228 
L 1234 2228 
L 800 0 
L 172 0 
L 1081 4666 
z
" transform="scale(0.015625)"/>
      <path id="DejaVuSans-3d" d="M 678 2906 
L 4684 2906 
L 4684 2381 
L 678 2381 
L 678 2906 
z
M 678 1631 
L 4684 1631 
L 4684 1100 
L 678 1100 
L 678 1631 
z
" transform="scale(0.015625)"/>
      <path id="DejaVuSans-2192" d="M 5050 2147 
L 5050 1866 
L 3822 638 
L 3447 1013 
L 4175 1741 
L 366 1741 
L 366 2272 
L 4175 2272 
L 3447 3000 
L 3822 3375 
L 5050 2147 
z
" transform="scale(0.015625)"/>
      <path id="DejaVuSans-7b" d="M 3272 -594 
L 3272 -1044 
L 3078 -1044 
Q 2300 -1044 2036 -812 
Q 1772 -581 1772 109 
L 1772 856 
Q 1772 1328 1603 1509 
Q 1434 1691 991 1691 
L 800 1691 
L 800 2138 
L 991 2138 
Q 1438 2138 1605 2317 
Q 1772 2497 1772 2963 
L 1772 3713 
Q 1772 4403 2036 4633 
Q 2300 4863 3078 4863 
L 3272 4863 
L 3272 4416 
L 3059 4416 
Q 2619 4416 2484 4278 
Q 2350 4141 2350 3700 
L 2350 2925 
Q 2350 2434 2208 2212 
Q 2066 1991 1722 1913 
Q 2069 1828 2209 1606 
Q 2350 1384 2350 897 
L 2350 122 
Q 2350 -319 2484 -456 
Q 2619 -594 3059 -594 
L 3272 -594 
z
" transform="scale(0.015625)"/>
      <path id="DejaVuSans-7d" d="M 800 -594 
L 1019 -594 
Q 1456 -594 1589 -459 
Q 1722 -325 1722 122 
L 1722 897 
Q 1722 1384 1862 1606 
Q 2003 1828 2350 1913 
Q 2003 1991 1862 2212 
Q 1722 2434 1722 2925 
L 1722 3700 
Q 1722 4144 1589 4280 
Q 1456 4416 1019 4416 
L 800 4416 
L 800 4863 
L 997 4863 
Q 1775 4863 2036 4633 
Q 2297 4403 2297 3713 
L 2297 2963 
Q 2297 2497 2465 2317 
Q 2634 2138 3078 2138 
L 3272 2138 
L 3272 1691 
L 3078 1691 
Q 2634 1691 2465 1509 
Q 2297 1328 2297 856 
L 2297 109 
Q 2297 -581 2036 -812 
Q 1775 -1044 997 -1044 
L 800 -1044 
L 800 -594 
z
" transform="scale(0.015625)"/>
     </defs>
     <use xlink:href="#DejaVuSans-38" transform="translate(0.957031 39.046875) scale(0.7)"/>
     <use xlink:href="#DejaVuSans-37" transform="translate(45.493164 39.046875) scale(0.7)"/>
     <use xlink:href="#DejaVuSans-Oblique-52" transform="translate(92.763672 0.765625)"/>
     <use xlink:href="#DejaVuSans-Oblique-62" transform="translate(162.246094 0.765625)"/>
     <use xlink:href="#DejaVuSans-3a" transform="translate(245.205078 0.765625)"/>
     <use xlink:href="#DejaVuSans-Oblique-46" transform="translate(330.849285 0.765625)"/>
     <use xlink:href="#DejaVuSans-3d" transform="translate(407.851238 0.765625)"/>
     <use xlink:href="#DejaVuSans-31" transform="translate(511.122722 0.765625)"/>
     <use xlink:href="#DejaVuSans-2192" transform="translate(594.228191 0.765625)"/>
     <use xlink:href="#DejaVuSans-7b" transform="translate(697.499675 0.765625)"/>
     <use xlink:href="#DejaVuSans-30" transform="translate(761.122722 0.765625)"/>
     <use xlink:href="#DejaVuSans-2c" transform="translate(824.745769 0.765625)"/>
     <use xlink:href="#DejaVuSans-31" transform="translate(876.0153 0.765625)"/>
     <use xlink:href="#DejaVuSans-2c" transform="translate(939.638347 0.765625)"/>
     <use xlink:href="#DejaVuSans-32" transform="translate(990.907878 0.765625)"/>
     <use xlink:href="#DejaVuSans-7d" transform="translate(1054.530925 0.765625)"/>
    </g>
    <!-- $\Delta \nu = 1650\ MHz$ -->
    <g transform="translate(171.883401 143.229738) scale(0.1 -0.1)">
     <defs>
      <path id="DejaVuSans-394" d="M 2188 4044 
L 906 525 
L 3472 525 
L 2188 4044 
z
M 50 0 
L 1831 4666 
L 2547 4666 
L 4325 0 
L 50 0 
z
" transform="scale(0.015625)"/>
      <path id="DejaVuSans-Oblique-3bd" d="M 959 0 
L 572 3500 
L 1191 3500 
L 1522 563 
Q 1972 950 2391 1488 
Q 2706 1891 2788 2241 
Q 2825 2406 2809 2719 
Q 2794 3091 2544 3500 
L 3125 3500 
L 3125 3500 
Q 3288 3222 3353 2834 
Q 3416 2478 3369 2234 
Q 3250 1622 2719 1075 
Q 2025 363 1572 0 
L 959 0 
z
" transform="scale(0.015625)"/>
      <path id="DejaVuSans-Oblique-4d" d="M 1081 4666 
L 2028 4666 
L 2572 1522 
L 4378 4666 
L 5350 4666 
L 4441 0 
L 3828 0 
L 4622 4091 
L 2791 897 
L 2175 897 
L 1581 4103 
L 788 0 
L 172 0 
L 1081 4666 
z
" transform="scale(0.015625)"/>
      <path id="DejaVuSans-Oblique-48" d="M 1081 4666 
L 1716 4666 
L 1344 2753 
L 3634 2753 
L 4006 4666 
L 4641 4666 
L 3731 0 
L 3097 0 
L 3531 2222 
L 1241 2222 
L 806 0 
L 172 0 
L 1081 4666 
z
" transform="scale(0.015625)"/>
      <path id="DejaVuSans-Oblique-7a" d="M 744 3500 
L 3475 3500 
L 3372 2975 
L 738 459 
L 2913 459 
L 2822 0 
L -19 0 
L 84 525 
L 2719 3041 
L 653 3041 
L 744 3500 
z
" transform="scale(0.015625)"/>
     </defs>
     <use xlink:href="#DejaVuSans-394" transform="translate(0 0.78125)"/>
     <use xlink:href="#DejaVuSans-Oblique-3bd" transform="translate(68.408203 0.78125)"/>
     <use xlink:href="#DejaVuSans-3d" transform="translate(143.75 0.78125)"/>
     <use xlink:href="#DejaVuSans-31" transform="translate(247.021484 0.78125)"/>
     <use xlink:href="#DejaVuSans-36" transform="translate(310.644531 0.78125)"/>
     <use xlink:href="#DejaVuSans-35" transform="translate(374.267578 0.78125)"/>
     <use xlink:href="#DejaVuSans-30" transform="translate(437.890625 0.78125)"/>
     <use xlink:href="#DejaVuSans-Oblique-4d" transform="translate(533.98405 0.78125)"/>
     <use xlink:href="#DejaVuSans-Oblique-48" transform="translate(620.263347 0.78125)"/>
     <use xlink:href="#DejaVuSans-Oblique-7a" transform="translate(695.45866 0.78125)"/>
    </g>
    <!-- $\sigma = 238\ MHz$ -->
    <g transform="translate(178.083401 154.427551) scale(0.1 -0.1)">
     <defs>
      <path id="DejaVuSans-Oblique-3c3" d="M 2219 3044 
Q 1744 3044 1422 2700 
Q 1081 2341 969 1747 
Q 844 1119 1044 756 
Q 1241 397 1706 397 
Q 2166 397 2503 759 
Q 2844 1122 2966 1747 
Q 3075 2319 2881 2700 
Q 2700 3044 2219 3044 
z
M 2309 3503 
L 4219 3500 
L 4106 2925 
L 3463 2925 
Q 3706 2438 3575 1747 
Q 3406 888 2884 400 
Q 2359 -91 1609 -91 
Q 856 -91 525 400 
Q 194 888 363 1747 
Q 528 2609 1050 3097 
Q 1484 3503 2309 3503 
z
" transform="scale(0.015625)"/>
      <path id="DejaVuSans-33" d="M 2597 2516 
Q 3050 2419 3304 2112 
Q 3559 1806 3559 1356 
Q 3559 666 3084 287 
Q 2609 -91 1734 -91 
Q 1441 -91 1130 -33 
Q 819 25 488 141 
L 488 750 
Q 750 597 1062 519 
Q 1375 441 1716 441 
Q 2309 441 2620 675 
Q 2931 909 2931 1356 
Q 2931 1769 2642 2001 
Q 2353 2234 1838 2234 
L 1294 2234 
L 1294 2753 
L 1863 2753 
Q 2328 2753 2575 2939 
Q 2822 3125 2822 3475 
Q 2822 3834 2567 4026 
Q 2313 4219 1838 4219 
Q 1578 4219 1281 4162 
Q 984 4106 628 3988 
L 628 4550 
Q 988 4650 1302 4700 
Q 1616 4750 1894 4750 
Q 2613 4750 3031 4423 
Q 3450 4097 3450 3541 
Q 3450 3153 3228 2886 
Q 3006 2619 2597 2516 
z
" transform="scale(0.015625)"/>
     </defs>
     <use xlink:href="#DejaVuSans-Oblique-3c3" transform="translate(0 0.78125)"/>
     <use xlink:href="#DejaVuSans-3d" transform="translate(82.861328 0.78125)"/>
     <use xlink:href="#DejaVuSans-32" transform="translate(186.132812 0.78125)"/>
     <use xlink:href="#DejaVuSans-33" transform="translate(249.755859 0.78125)"/>
     <use xlink:href="#DejaVuSans-38" transform="translate(313.378906 0.78125)"/>
     <use xlink:href="#DejaVuSans-Oblique-4d" transform="translate(409.472332 0.78125)"/>
     <use xlink:href="#DejaVuSans-Oblique-48" transform="translate(495.751628 0.78125)"/>
     <use xlink:href="#DejaVuSans-Oblique-7a" transform="translate(570.946941 0.78125)"/>
    </g>
    <!-- $s = 11$ % -->
    <g transform="translate(187.833401 165.625363) scale(0.1 -0.1)">
     <defs>
      <path id="DejaVuSans-Oblique-73" d="M 3200 3397 
L 3091 2853 
Q 2863 2978 2609 3040 
Q 2356 3103 2088 3103 
Q 1634 3103 1373 2948 
Q 1113 2794 1113 2528 
Q 1113 2219 1719 2053 
Q 1766 2041 1788 2034 
L 1972 1978 
Q 2547 1819 2739 1644 
Q 2931 1469 2931 1166 
Q 2931 609 2489 259 
Q 2047 -91 1331 -91 
Q 1053 -91 747 -37 
Q 441 16 72 128 
L 184 722 
Q 500 559 806 475 
Q 1113 391 1394 391 
Q 1816 391 2080 572 
Q 2344 753 2344 1031 
Q 2344 1331 1650 1516 
L 1591 1531 
L 1394 1581 
Q 956 1697 753 1886 
Q 550 2075 550 2369 
Q 550 2928 970 3256 
Q 1391 3584 2113 3584 
Q 2397 3584 2667 3537 
Q 2938 3491 3200 3397 
z
" transform="scale(0.015625)"/>
      <path id="DejaVuSans-25" d="M 4653 2053 
Q 4381 2053 4226 1822 
Q 4072 1591 4072 1178 
Q 4072 772 4226 539 
Q 4381 306 4653 306 
Q 4919 306 5073 539 
Q 5228 772 5228 1178 
Q 5228 1588 5073 1820 
Q 4919 2053 4653 2053 
z
M 4653 2450 
Q 5147 2450 5437 2106 
Q 5728 1763 5728 1178 
Q 5728 594 5436 251 
Q 5144 -91 4653 -91 
Q 4153 -91 3862 251 
Q 3572 594 3572 1178 
Q 3572 1766 3864 2108 
Q 4156 2450 4653 2450 
z
M 1428 4353 
Q 1159 4353 1004 4120 
Q 850 3888 850 3481 
Q 850 3069 1003 2837 
Q 1156 2606 1428 2606 
Q 1700 2606 1854 2837 
Q 2009 3069 2009 3481 
Q 2009 3884 1853 4118 
Q 1697 4353 1428 4353 
z
M 4250 4750 
L 4750 4750 
L 1831 -91 
L 1331 -91 
L 4250 4750 
z
M 1428 4750 
Q 1922 4750 2215 4408 
Q 2509 4066 2509 3481 
Q 2509 2891 2217 2550 
Q 1925 2209 1428 2209 
Q 931 2209 642 2551 
Q 353 2894 353 3481 
Q 353 4063 643 4406 
Q 934 4750 1428 4750 
z
" transform="scale(0.015625)"/>
     </defs>
     <use xlink:href="#DejaVuSans-Oblique-73" transform="translate(0 0.78125)"/>
     <use xlink:href="#DejaVuSans-3d" transform="translate(71.582031 0.78125)"/>
     <use xlink:href="#DejaVuSans-31" transform="translate(174.853516 0.78125)"/>
     <use xlink:href="#DejaVuSans-31" transform="translate(238.476562 0.78125)"/>
     <use xlink:href="#DejaVuSans-20" transform="translate(302.099609 0.78125)"/>
     <use xlink:href="#DejaVuSans-25" transform="translate(333.886719 0.78125)"/>
    </g>
   </g>
   <g id="patch_8">
    <path d="M 370.336998 167.705051 
Q 370.336998 167.705051 370.336998 167.705051 
" style="fill: none; stroke: #008000; stroke-linecap: round"/>
   </g>
   <g id="text_14">
    <!-- $^{85}Rb:\ F = 2 \rightarrow \{1, 2, 3\}$ -->
    <g transform="translate(314.386998 132.031926) scale(0.1 -0.1)">
     <use xlink:href="#DejaVuSans-38" transform="translate(0.957031 39.046875) scale(0.7)"/>
     <use xlink:href="#DejaVuSans-35" transform="translate(45.493164 39.046875) scale(0.7)"/>
     <use xlink:href="#DejaVuSans-Oblique-52" transform="translate(92.763672 0.765625)"/>
     <use xlink:href="#DejaVuSans-Oblique-62" transform="translate(162.246094 0.765625)"/>
     <use xlink:href="#DejaVuSans-3a" transform="translate(245.205078 0.765625)"/>
     <use xlink:href="#DejaVuSans-Oblique-46" transform="translate(330.849285 0.765625)"/>
     <use xlink:href="#DejaVuSans-3d" transform="translate(407.851238 0.765625)"/>
     <use xlink:href="#DejaVuSans-32" transform="translate(511.122722 0.765625)"/>
     <use xlink:href="#DejaVuSans-2192" transform="translate(594.228191 0.765625)"/>
     <use xlink:href="#DejaVuSans-7b" transform="translate(697.499675 0.765625)"/>
     <use xlink:href="#DejaVuSans-31" transform="translate(761.122722 0.765625)"/>
     <use xlink:href="#DejaVuSans-2c" transform="translate(824.745769 0.765625)"/>
     <use xlink:href="#DejaVuSans-32" transform="translate(876.0153 0.765625)"/>
     <use xlink:href="#DejaVuSans-2c" transform="translate(939.638347 0.765625)"/>
     <use xlink:href="#DejaVuSans-33" transform="translate(990.907878 0.765625)"/>
     <use xlink:href="#DejaVuSans-7d" transform="translate(1054.530925 0.765625)"/>
    </g>
    <!-- $\Delta \nu = 2818\ MHz$ -->
    <g transform="translate(332.936998 143.229738) scale(0.1 -0.1)">
     <use xlink:href="#DejaVuSans-394" transform="translate(0 0.78125)"/>
     <use xlink:href="#DejaVuSans-Oblique-3bd" transform="translate(68.408203 0.78125)"/>
     <use xlink:href="#DejaVuSans-3d" transform="translate(143.75 0.78125)"/>
     <use xlink:href="#DejaVuSans-32" transform="translate(247.021484 0.78125)"/>
     <use xlink:href="#DejaVuSans-38" transform="translate(310.644531 0.78125)"/>
     <use xlink:href="#DejaVuSans-31" transform="translate(374.267578 0.78125)"/>
     <use xlink:href="#DejaVuSans-38" transform="translate(437.890625 0.78125)"/>
     <use xlink:href="#DejaVuSans-Oblique-4d" transform="translate(533.98405 0.78125)"/>
     <use xlink:href="#DejaVuSans-Oblique-48" transform="translate(620.263347 0.78125)"/>
     <use xlink:href="#DejaVuSans-Oblique-7a" transform="translate(695.45866 0.78125)"/>
    </g>
    <!-- $\sigma = 235\ MHz$ -->
    <g transform="translate(339.136998 154.427551) scale(0.1 -0.1)">
     <use xlink:href="#DejaVuSans-Oblique-3c3" transform="translate(0 0.78125)"/>
     <use xlink:href="#DejaVuSans-3d" transform="translate(82.861328 0.78125)"/>
     <use xlink:href="#DejaVuSans-32" transform="translate(186.132812 0.78125)"/>
     <use xlink:href="#DejaVuSans-33" transform="translate(249.755859 0.78125)"/>
     <use xlink:href="#DejaVuSans-35" transform="translate(313.378906 0.78125)"/>
     <use xlink:href="#DejaVuSans-Oblique-4d" transform="translate(409.472332 0.78125)"/>
     <use xlink:href="#DejaVuSans-Oblique-48" transform="translate(495.751628 0.78125)"/>
     <use xlink:href="#DejaVuSans-Oblique-7a" transform="translate(570.946941 0.78125)"/>
    </g>
    <!-- $s = 19$ % -->
    <g transform="translate(348.886998 165.625363) scale(0.1 -0.1)">
     <defs>
      <path id="DejaVuSans-39" d="M 703 97 
L 703 672 
Q 941 559 1184 500 
Q 1428 441 1663 441 
Q 2288 441 2617 861 
Q 2947 1281 2994 2138 
Q 2813 1869 2534 1725 
Q 2256 1581 1919 1581 
Q 1219 1581 811 2004 
Q 403 2428 403 3163 
Q 403 3881 828 4315 
Q 1253 4750 1959 4750 
Q 2769 4750 3195 4129 
Q 3622 3509 3622 2328 
Q 3622 1225 3098 567 
Q 2575 -91 1691 -91 
Q 1453 -91 1209 -44 
Q 966 3 703 97 
z
M 1959 2075 
Q 2384 2075 2632 2365 
Q 2881 2656 2881 3163 
Q 2881 3666 2632 3958 
Q 2384 4250 1959 4250 
Q 1534 4250 1286 3958 
Q 1038 3666 1038 3163 
Q 1038 2656 1286 2365 
Q 1534 2075 1959 2075 
z
" transform="scale(0.015625)"/>
     </defs>
     <use xlink:href="#DejaVuSans-Oblique-73" transform="translate(0 0.78125)"/>
     <use xlink:href="#DejaVuSans-3d" transform="translate(71.582031 0.78125)"/>
     <use xlink:href="#DejaVuSans-31" transform="translate(174.853516 0.78125)"/>
     <use xlink:href="#DejaVuSans-39" transform="translate(238.476562 0.78125)"/>
     <use xlink:href="#DejaVuSans-20" transform="translate(302.099609 0.78125)"/>
     <use xlink:href="#DejaVuSans-25" transform="translate(333.886719 0.78125)"/>
    </g>
   </g>
   <g id="patch_9">
    <path d="M 518.408627 171.704973 
Q 518.408627 306.021114 518.408627 440.337255 
" style="fill: none; stroke: #ffa500; stroke-linecap: round"/>
   </g>
   <g id="text_15">
    <!-- $^{85}Rb:\ F = 3 \rightarrow \{2, 3, 4\}$ -->
    <g transform="translate(462.458627 132.031926) scale(0.1 -0.1)">
     <use xlink:href="#DejaVuSans-38" transform="translate(0.957031 39.046875) scale(0.7)"/>
     <use xlink:href="#DejaVuSans-35" transform="translate(45.493164 39.046875) scale(0.7)"/>
     <use xlink:href="#DejaVuSans-Oblique-52" transform="translate(92.763672 0.765625)"/>
     <use xlink:href="#DejaVuSans-Oblique-62" transform="translate(162.246094 0.765625)"/>
     <use xlink:href="#DejaVuSans-3a" transform="translate(245.205078 0.765625)"/>
     <use xlink:href="#DejaVuSans-Oblique-46" transform="translate(330.849285 0.765625)"/>
     <use xlink:href="#DejaVuSans-3d" transform="translate(407.851238 0.765625)"/>
     <use xlink:href="#DejaVuSans-33" transform="translate(511.122722 0.765625)"/>
     <use xlink:href="#DejaVuSans-2192" transform="translate(594.228191 0.765625)"/>
     <use xlink:href="#DejaVuSans-7b" transform="translate(697.499675 0.765625)"/>
     <use xlink:href="#DejaVuSans-32" transform="translate(761.122722 0.765625)"/>
     <use xlink:href="#DejaVuSans-2c" transform="translate(824.745769 0.765625)"/>
     <use xlink:href="#DejaVuSans-33" transform="translate(876.0153 0.765625)"/>
     <use xlink:href="#DejaVuSans-2c" transform="translate(939.638347 0.765625)"/>
     <use xlink:href="#DejaVuSans-34" transform="translate(990.907878 0.765625)"/>
     <use xlink:href="#DejaVuSans-7d" transform="translate(1054.530925 0.765625)"/>
    </g>
    <!-- $\Delta \nu = 5696\ MHz$ -->
    <g transform="translate(481.008627 143.229738) scale(0.1 -0.1)">
     <use xlink:href="#DejaVuSans-394" transform="translate(0 0.78125)"/>
     <use xlink:href="#DejaVuSans-Oblique-3bd" transform="translate(68.408203 0.78125)"/>
     <use xlink:href="#DejaVuSans-3d" transform="translate(143.75 0.78125)"/>
     <use xlink:href="#DejaVuSans-35" transform="translate(247.021484 0.78125)"/>
     <use xlink:href="#DejaVuSans-36" transform="translate(310.644531 0.78125)"/>
     <use xlink:href="#DejaVuSans-39" transform="translate(374.267578 0.78125)"/>
     <use xlink:href="#DejaVuSans-36" transform="translate(437.890625 0.78125)"/>
     <use xlink:href="#DejaVuSans-Oblique-4d" transform="translate(533.98405 0.78125)"/>
     <use xlink:href="#DejaVuSans-Oblique-48" transform="translate(620.263347 0.78125)"/>
     <use xlink:href="#DejaVuSans-Oblique-7a" transform="translate(695.45866 0.78125)"/>
    </g>
    <!-- $\sigma = 258\ MHz$ -->
    <g transform="translate(487.208627 154.427551) scale(0.1 -0.1)">
     <use xlink:href="#DejaVuSans-Oblique-3c3" transform="translate(0 0.78125)"/>
     <use xlink:href="#DejaVuSans-3d" transform="translate(82.861328 0.78125)"/>
     <use xlink:href="#DejaVuSans-32" transform="translate(186.132812 0.78125)"/>
     <use xlink:href="#DejaVuSans-35" transform="translate(249.755859 0.78125)"/>
     <use xlink:href="#DejaVuSans-38" transform="translate(313.378906 0.78125)"/>
     <use xlink:href="#DejaVuSans-Oblique-4d" transform="translate(409.472332 0.78125)"/>
     <use xlink:href="#DejaVuSans-Oblique-48" transform="translate(495.751628 0.78125)"/>
     <use xlink:href="#DejaVuSans-Oblique-7a" transform="translate(570.946941 0.78125)"/>
    </g>
    <!-- $s = 5$ % -->
    <g transform="translate(500.108627 165.625363) scale(0.1 -0.1)">
     <use xlink:href="#DejaVuSans-Oblique-73" transform="translate(0 0.78125)"/>
     <use xlink:href="#DejaVuSans-3d" transform="translate(71.582031 0.78125)"/>
     <use xlink:href="#DejaVuSans-35" transform="translate(174.853516 0.78125)"/>
     <use xlink:href="#DejaVuSans-20" transform="translate(238.476562 0.78125)"/>
     <use xlink:href="#DejaVuSans-25" transform="translate(270.263672 0.78125)"/>
    </g>
   </g>
   <g id="patch_10">
    <path d="M 694.445552 171.706887 
Q 694.445552 337.111453 694.445552 502.51602 
" style="fill: none; stroke: #ff00ff; stroke-linecap: round"/>
   </g>
   <g id="text_16">
    <!-- $^{87}Rb:\ F = 2 \rightarrow \{1, 2, 3\}$ -->
    <g transform="translate(638.495552 132.031926) scale(0.1 -0.1)">
     <use xlink:href="#DejaVuSans-38" transform="translate(0.957031 39.046875) scale(0.7)"/>
     <use xlink:href="#DejaVuSans-37" transform="translate(45.493164 39.046875) scale(0.7)"/>
     <use xlink:href="#DejaVuSans-Oblique-52" transform="translate(92.763672 0.765625)"/>
     <use xlink:href="#DejaVuSans-Oblique-62" transform="translate(162.246094 0.765625)"/>
     <use xlink:href="#DejaVuSans-3a" transform="translate(245.205078 0.765625)"/>
     <use xlink:href="#DejaVuSans-Oblique-46" transform="translate(330.849285 0.765625)"/>
     <use xlink:href="#DejaVuSans-3d" transform="translate(407.851238 0.765625)"/>
     <use xlink:href="#DejaVuSans-32" transform="translate(511.122722 0.765625)"/>
     <use xlink:href="#DejaVuSans-2192" transform="translate(594.228191 0.765625)"/>
     <use xlink:href="#DejaVuSans-7b" transform="translate(697.499675 0.765625)"/>
     <use xlink:href="#DejaVuSans-31" transform="translate(761.122722 0.765625)"/>
     <use xlink:href="#DejaVuSans-2c" transform="translate(824.745769 0.765625)"/>
     <use xlink:href="#DejaVuSans-32" transform="translate(876.0153 0.765625)"/>
     <use xlink:href="#DejaVuSans-2c" transform="translate(939.638347 0.765625)"/>
     <use xlink:href="#DejaVuSans-33" transform="translate(990.907878 0.765625)"/>
     <use xlink:href="#DejaVuSans-7d" transform="translate(1054.530925 0.765625)"/>
    </g>
    <!-- $\Delta \nu = 8000\ MHz$ -->
    <g transform="translate(657.045552 143.229738) scale(0.1 -0.1)">
     <use xlink:href="#DejaVuSans-394" transform="translate(0 0.78125)"/>
     <use xlink:href="#DejaVuSans-Oblique-3bd" transform="translate(68.408203 0.78125)"/>
     <use xlink:href="#DejaVuSans-3d" transform="translate(143.75 0.78125)"/>
     <use xlink:href="#DejaVuSans-38" transform="translate(247.021484 0.78125)"/>
     <use xlink:href="#DejaVuSans-30" transform="translate(310.644531 0.78125)"/>
     <use xlink:href="#DejaVuSans-30" transform="translate(374.267578 0.78125)"/>
     <use xlink:href="#DejaVuSans-30" transform="translate(437.890625 0.78125)"/>
     <use xlink:href="#DejaVuSans-Oblique-4d" transform="translate(533.98405 0.78125)"/>
     <use xlink:href="#DejaVuSans-Oblique-48" transform="translate(620.263347 0.78125)"/>
     <use xlink:href="#DejaVuSans-Oblique-7a" transform="translate(695.45866 0.78125)"/>
    </g>
    <!-- $\sigma = 405\ MHz$ -->
    <g transform="translate(663.245552 154.427551) scale(0.1 -0.1)">
     <use xlink:href="#DejaVuSans-Oblique-3c3" transform="translate(0 0.78125)"/>
     <use xlink:href="#DejaVuSans-3d" transform="translate(82.861328 0.78125)"/>
     <use xlink:href="#DejaVuSans-34" transform="translate(186.132812 0.78125)"/>
     <use xlink:href="#DejaVuSans-30" transform="translate(249.755859 0.78125)"/>
     <use xlink:href="#DejaVuSans-35" transform="translate(313.378906 0.78125)"/>
     <use xlink:href="#DejaVuSans-Oblique-4d" transform="translate(409.472332 0.78125)"/>
     <use xlink:href="#DejaVuSans-Oblique-48" transform="translate(495.751628 0.78125)"/>
     <use xlink:href="#DejaVuSans-Oblique-7a" transform="translate(570.946941 0.78125)"/>
    </g>
    <!-- $s = 3$ % -->
    <g transform="translate(676.145552 165.625363) scale(0.1 -0.1)">
     <use xlink:href="#DejaVuSans-Oblique-73" transform="translate(0 0.78125)"/>
     <use xlink:href="#DejaVuSans-3d" transform="translate(71.582031 0.78125)"/>
     <use xlink:href="#DejaVuSans-33" transform="translate(174.853516 0.78125)"/>
     <use xlink:href="#DejaVuSans-20" transform="translate(238.476562 0.78125)"/>
     <use xlink:href="#DejaVuSans-25" transform="translate(270.263672 0.78125)"/>
    </g>
   </g>
  </g>
 </g>
 <defs>
  <clipPath id="p7f39bd9a47">
   <rect x="47.72" y="14.76" width="797.56" height="661.84"/>
  </clipPath>
 </defs>
</svg>
